<svg width="144" height="144" viewBox="0 0 144 144" fill="none" xmlns="http://www.w3.org/2000/svg">
<g clip-path="url(#clip0_80_8)">
<rect width="144" height="144" rx="51" fill="#65A30D"/>
<path fill-rule="evenodd" clip-rule="evenodd" d="M27.8986 41.3218C27.8986 39.9686 29.007 38.8474 30.3729 38.8474H52.6439C54.0076 38.8474 55.1188 39.9686 55.1188 41.3218C55.1188 42.6755 54.0076 43.7967 52.6439 43.7967H30.3729C29.007 43.7967 27.8986 42.6755 27.8986 41.3218ZM22.9493 51.2203C22.9493 49.8666 24.0577 48.7454 25.4236 48.7454H40.2709C41.6347 48.7454 42.7459 49.8666 42.7459 51.2203C42.7459 52.5735 41.6347 53.6947 40.2709 53.6947H25.4236C24.0577 53.6947 22.9493 52.5735 22.9493 51.2203ZM18 61.1184C18 59.7652 19.1084 58.644 20.4744 58.644H32.8473C34.211 58.644 35.3217 59.7652 35.3217 61.1184C35.3217 62.4721 34.211 63.5933 32.8473 63.5933H20.4744C19.1084 63.5933 18 62.4721 18 61.1184Z" fill="white"/>
<path fill-rule="evenodd" clip-rule="evenodd" d="M45.2209 83.3892C43.402 84.9405 40.7495 85.8636 37.7973 85.8636C32.3335 85.8636 27.8965 82.5305 27.8965 78.4399C27.8965 74.3493 32.3335 71.0163 37.7973 71.0163C40.7961 71.0163 43.402 71.9071 45.2209 73.4912C46.3515 57.8196 58.8482 51.2202 69.9662 51.2202C73.7816 51.2202 77.452 52.4596 81.1203 53.6974C84.7819 54.934 88.4407 56.169 92.2372 56.169C94.8475 56.169 96.2612 53.936 97.8453 51.4323C99.0053 49.6006 100.256 47.623 102.136 46.2709C98.9259 41.0569 91.4579 36.3729 84.8135 36.3729C82.1549 36.3729 80.0413 37.0512 78.0271 37.6973C76.1943 38.2856 74.4437 38.8473 72.4412 38.8473C67.9148 38.8473 62.5426 35.5487 62.5426 31.4236C62.5426 25.8805 71.8595 24 77.3899 24C88.4457 24 97.3929 31.3532 105.797 38.2612C107.044 39.2908 108.298 40.311 109.559 41.3217C118.015 41.3217 126.881 45.0166 126.881 61.1182C126.881 65.2433 125.082 71.0163 119.457 71.0163C115.013 71.0163 110.295 68.0712 107.174 66.123L107.084 66.0675C107.627 81.3111 99.4044 100.029 87.1652 104.909C87.0674 104.594 86.9063 104.302 86.6918 104.051C86.4772 103.8 86.2138 103.596 85.9175 103.451L84.3734 102.658C86.0485 101.174 87.5682 99.5902 88.8176 97.9073C90.8368 95.1682 92.2349 91.9684 92.2349 88.3385C92.2349 81.1124 89.8794 73.4912 83.7995 69.037C83.5395 68.8401 83.2428 68.6974 82.9267 68.6173C82.6107 68.5371 82.2817 68.5211 81.9594 68.5703C81.6371 68.6194 81.3279 68.7327 81.0501 68.9035C80.7723 69.0742 80.5316 69.2989 80.3421 69.5643C79.5357 70.6527 79.7732 72.204 80.8744 72.9961C85.217 76.1959 87.2884 82.0033 87.2884 88.3385C87.2884 90.6469 86.4198 92.7927 84.8363 94.9701C83.23 97.1131 80.9632 99.1917 78.3429 101.238C76.9075 102.359 77.1307 104.571 78.7564 105.395L83.7051 107.87C83.9939 108.019 84.3093 108.109 84.6332 108.135C84.957 108.16 85.2828 108.122 85.5916 108.021C85.9003 107.92 86.1859 107.758 86.4318 107.546C86.6776 107.333 86.8788 107.074 87.0237 106.784L87.0403 106.75C93.8534 110.088 102.136 114.468 102.136 122.982C102.136 125.325 99.5148 127.931 97.1864 127.931C93.9767 127.931 90.8818 124.464 87.6764 120.873C85.0994 117.986 82.4513 115.019 79.6145 113.71C76.479 112.278 73.3009 111.88 70.5507 111.536C65.9472 110.96 62.5426 110.533 62.5426 105.66C62.5426 103.751 63.7964 102.192 65.0419 100.644C66.2708 99.1151 67.4919 97.5971 67.4919 95.7621C67.4919 93.6363 63.3302 92.6212 58.6046 91.4683C52.3987 89.9547 45.2209 88.2036 45.2209 83.3892ZM119.457 53.6946C120.823 53.6946 121.932 54.8158 121.932 56.169C121.932 57.5227 120.823 58.6439 119.457 58.6439C118.091 58.6439 116.983 57.5227 116.983 56.169C116.983 54.8158 118.091 53.6946 119.457 53.6946Z" fill="white"/>
</g>
<defs>
<clipPath id="clip0_80_8">
<rect width="144" height="144" fill="white"/>
</clipPath>
</defs>
</svg>
