<svg width="896" height="554" viewBox="0 0 896 554" fill="none" xmlns="http://www.w3.org/2000/svg">
<g clip-path="url(#clip0_1_4)">
<g filter="url(#filter0_d_1_4)">
<path d="M170.1 232.853C156.19 236.58 141.218 238.192 125.184 237.688C119.582 237.39 114.076 236.865 108.667 236.114C103.257 235.364 97.8483 234.513 92.4391 233.562C85.4844 240.826 76.9843 247.604 66.9387 253.895C56.893 260.187 47.3304 264.549 38.2507 266.982C26.4664 270.14 17.8696 269.743 12.4604 265.793C7.24444 261.79 4.63644 256.489 4.63644 249.889C4.63644 243.089 7.24444 236.09 12.4604 228.893C17.6764 221.695 24.8243 216.88 33.904 214.447C41.245 212.48 48.7793 212.361 56.5067 214.09C64.2341 215.82 71.4785 217.379 78.24 218.767C80.1718 219.249 82.2003 219.706 84.3253 220.137C86.4504 220.567 88.5754 220.998 90.7004 221.428C97.0755 213.92 103.934 204.382 111.275 192.815C118.616 181.248 126.247 168.604 134.167 154.881C142.088 141.159 150.105 127.211 158.219 113.037C166.526 98.811 174.833 85.0852 183.14 71.8593C191.447 58.6335 199.753 46.8076 208.06 36.3818C202.265 35.5347 196.083 35.3911 189.515 35.9511C182.946 36.3111 175.895 37.5005 168.361 39.5192C148.076 44.9544 130.497 51.765 115.621 59.9508C100.939 67.8848 88.5754 76.4977 78.5298 85.7894C68.6773 95.0294 60.8533 104.226 55.0578 113.379C49.4554 122.28 45.5917 130.315 43.4667 137.485C42.6939 140.292 42.1144 142.847 41.728 145.15C41.3416 147.254 41.1484 149.306 41.1484 151.306C41.1484 158.106 43.1769 162.662 47.2338 164.975C51.2907 167.288 56.5067 167.59 62.8818 165.882C69.4501 164.122 76.7911 160.255 84.9049 154.281C93.0187 148.307 101.326 140.181 109.826 129.904C118.326 119.426 126.15 106.63 133.298 91.5144C134.264 89.4556 135.713 88.1673 137.644 87.6497C139.19 87.2356 140.446 87.3991 141.412 88.1403C142.571 88.6297 143.15 89.6744 143.15 91.2744C143.15 92.2744 142.86 93.3521 142.281 94.5074C134.553 110.578 125.957 124.381 116.491 135.918C107.218 147.403 97.8483 156.613 88.3822 163.549C79.1093 170.234 70.416 174.664 62.3022 176.838C53.2225 179.27 45.6883 178.689 39.6996 175.094C33.7108 171.299 30.7164 164.501 30.7164 154.701C30.7164 149.301 31.6824 143.342 33.6142 136.825C36.1256 127.952 40.5689 118.461 46.944 108.353C53.5123 98.1928 62.2056 88.1635 73.024 78.2647C84.0356 68.1142 97.3653 58.7425 113.013 50.1496C128.854 41.505 147.304 34.3615 168.361 28.7193C177.634 26.2346 186.23 24.8311 194.151 24.5088C202.265 24.1347 209.702 24.6418 216.464 26.0301C222.26 19.2771 227.959 13.6501 233.561 9.14897C239.356 4.59606 244.862 1.62079 250.078 0.223166C251.817 -0.242708 253.073 0.0208251 253.845 1.01377C254.618 1.80671 255.004 2.90318 255.004 4.30319C255.004 5.70318 254.618 7.10671 253.845 8.51376C253.073 9.72083 251.817 10.5573 250.078 11.0232C243.896 12.6796 235.976 18.6019 226.316 28.7901C241.578 34.3008 252.976 44.0467 260.51 58.0279C268.238 71.9574 272.101 87.4221 272.101 104.422C272.101 120.222 269.01 135.95 262.828 151.607C255.681 170.122 243.993 186.754 227.765 201.502C211.538 216.45 192.316 226.901 170.1 232.853ZM128.372 226.634C142.86 227.152 156.673 225.651 169.81 222.131C190.481 216.592 207.964 207.208 222.26 193.977C236.748 180.495 247.18 165.6 253.556 149.291C259.158 135.19 261.959 121.14 261.959 107.14C261.959 91.3397 258.289 77.1232 250.948 64.4902C243.607 51.6572 232.595 43.0078 217.913 38.5418C211.924 45.5465 205.839 53.5771 199.657 62.6335C193.668 71.6382 187.776 81.217 181.98 91.3699C177.73 98.9087 172.321 108.458 165.753 120.018C159.185 131.378 152.133 143.567 144.599 156.586C137.065 169.405 129.434 181.75 121.707 193.62C114.172 205.439 107.314 215.377 101.132 223.433C105.576 224.243 110.019 224.952 114.462 225.561C119.099 226.119 123.735 226.477 128.372 226.634ZM15.0684 246.794C15.0684 250.594 16.8071 253.628 20.2844 255.896C23.955 258.313 29.8471 258.434 37.9609 256.26C44.9156 254.396 52.3532 251.203 60.2738 246.681C68.1944 242.159 75.2456 237.069 81.4276 231.413C76.7911 230.455 72.1547 229.498 67.5182 228.54C62.8818 227.582 58.1487 226.651 53.3191 225.745C50.4213 225.121 47.9099 224.694 45.7849 224.463C43.6599 224.033 41.8246 223.925 40.2791 224.139C39.3132 223.997 38.3473 224.056 37.3813 224.315C36.4154 224.574 35.4495 224.833 34.4836 225.092C28.4948 226.696 23.7618 229.764 20.2844 234.296C16.8071 238.628 15.0684 242.794 15.0684 246.794Z" fill="white"/>
</g>
<g filter="url(#filter1_d_1_4)">
<path d="M293.534 168.777C287.545 170.382 282.426 169.853 278.176 167.192C274.119 164.479 272.091 158.423 272.091 149.023C272.091 142.623 273.636 134.709 276.727 125.28C280.011 115.8 284.358 106.336 289.767 96.8864C295.176 87.237 301.165 78.9323 307.733 71.9723C314.302 64.8124 320.966 60.3265 327.728 58.5148C332.171 57.3242 335.455 58.1442 337.58 60.9748C339.899 63.5537 341.058 67.1431 341.058 71.7431C341.058 78.5431 338.933 85.7125 334.683 93.2513C330.433 100.79 325.023 107.439 318.455 113.199C312.08 118.908 305.705 122.616 299.33 124.324C294.114 125.722 290.153 125.083 287.449 122.408C285.903 126.822 284.648 131.058 283.682 135.117C282.716 139.176 282.233 142.905 282.233 146.305C282.233 152.105 283.392 155.895 285.71 157.673C288.222 159.2 291.313 159.472 294.983 158.489C299.426 157.298 304.353 154.778 309.762 150.929C315.364 147.028 320.58 142.83 325.41 138.336C330.239 133.642 333.813 129.884 336.132 127.063C339.995 122.628 343.666 117.944 347.143 113.013C350.814 107.829 354.001 103.075 356.706 98.7502C357.672 97.2914 358.734 96.4067 359.893 96.0961C361.052 95.7855 362.018 96.1267 362.791 97.1196C363.757 97.8608 364.24 99.0314 364.24 100.631C364.24 102.031 363.757 103.561 362.791 105.22C359.7 110.048 355.836 115.683 351.2 122.125C346.757 128.316 341.734 134.362 336.132 140.263C333.041 143.691 329.08 147.352 324.251 151.247C319.421 155.141 314.302 158.712 308.892 161.962C303.676 165.159 298.557 167.431 293.534 168.777ZM298.75 114.879C302.614 113.844 306.767 111.431 311.211 107.641C315.847 103.798 319.904 99.3112 323.381 94.1795C327.052 88.7959 329.467 83.4489 330.626 78.1383C330.819 77.6866 330.916 77.1607 330.916 76.5607C330.916 75.9607 330.916 75.4607 330.916 75.0607C330.916 71.4607 329.66 69.9971 327.148 70.6701C323.092 71.7571 318.841 74.4959 314.398 78.8865C309.955 83.077 305.705 88.3158 301.648 94.6029C297.784 100.638 294.307 107.07 291.216 113.898C291.989 114.291 292.761 114.684 293.534 115.077C294.307 115.27 295.08 115.363 295.852 115.356C296.239 115.452 296.722 115.423 297.301 115.268C297.881 115.112 298.364 114.983 298.75 114.879Z" fill="white"/>
</g>
<g filter="url(#filter2_d_1_4)">
<path d="M365.739 148.277C359.17 150.037 354.631 149.553 352.119 146.826C349.608 144.099 348.352 140.036 348.352 134.636C348.352 129.436 349.221 123.503 350.96 116.837C352.892 109.919 355.113 103.124 357.625 96.4509C360.329 89.7262 362.937 83.8274 365.449 78.7545C367.96 73.4816 369.892 69.8639 371.244 67.9016C371.824 60.7463 373.852 55.0028 377.33 50.671C380.807 46.1393 383.801 43.5369 386.313 42.864C387.472 42.5534 388.341 42.6205 388.921 43.0652C390.466 44.2511 391.239 45.844 391.239 47.844C391.239 50.444 390.08 54.0546 387.762 58.6758C385.444 63.2969 381.966 69.5287 377.33 77.371C376.75 78.3263 375.495 80.7628 373.563 84.6804C371.631 88.5981 369.602 93.2416 367.477 98.611C365.352 103.98 363.517 109.372 361.972 114.786C360.426 120.2 359.653 124.807 359.653 128.607C359.653 135.207 362.455 137.757 368.057 136.256C374.046 134.651 379.938 130.772 385.733 124.619C391.722 118.415 397.228 111.139 402.251 102.793C407.467 94.1959 412.007 85.4794 415.87 76.6441C419.927 67.5571 423.018 59.3289 425.143 51.9595C427.461 44.5383 428.62 38.9277 428.62 35.1277C428.62 33.1277 428.427 31.8795 428.041 31.383C427.268 30.1901 426.882 28.8936 426.882 27.4936C426.882 25.6936 427.461 24.1383 428.62 22.8277C429.78 21.5171 431.035 20.6807 432.388 20.3183C435.285 19.5419 437.41 20.5725 438.763 23.4101C439.535 24.8031 439.922 27.0995 439.922 30.2995C439.922 35.8995 438.569 43.2619 435.865 52.3866C433.353 61.2595 429.683 70.843 424.853 81.1371C420.217 91.1795 414.808 100.929 408.626 110.385C402.444 119.842 395.682 128.053 388.341 135.02C381 141.788 373.466 146.206 365.739 148.277Z" fill="white"/>
</g>
<g filter="url(#filter3_d_1_4)">
<path d="M74.7627 545.568C57.376 550.227 43.1769 551.031 32.1653 547.982C21.1538 544.932 13.04 539.307 7.824 531.104C2.608 523.102 0 513.901 0 503.501C0 493.901 2.02844 483.957 6.08533 473.67C10.1422 463.383 15.8412 453.956 23.1822 445.389C30.7164 436.57 39.6996 429.563 50.1316 424.368C50.5179 424.264 50.8077 424.187 51.0009 424.135C51.1941 423.883 51.3873 423.731 51.5804 423.68C53.1259 423.266 54.3816 423.529 55.3476 424.47C56.3135 425.211 56.7964 426.382 56.7964 427.982C56.7964 430.982 55.3476 433.27 52.4498 434.847C43.5633 439.228 36.029 444.947 29.8471 452.003C23.6652 459.06 18.9321 466.628 15.648 474.708C12.557 482.736 11.0116 490.65 11.0116 498.45C11.0116 507.25 13.2332 515.055 17.6764 521.864C22.1197 528.874 28.9778 533.636 38.2507 536.151C47.7167 538.815 59.8874 538.154 74.7627 534.168C88.672 530.441 101.229 524.376 112.434 515.974C123.832 507.52 134.071 497.577 143.15 486.144C152.23 474.511 160.537 461.885 168.071 448.266C175.799 434.596 182.946 420.58 189.515 406.22C196.083 391.66 202.361 377.478 208.35 363.673C214.532 349.817 220.617 336.986 226.606 325.182C224.868 325.048 223.225 324.887 221.68 324.702C220.328 324.264 218.975 324.026 217.623 323.989C205.839 322.346 193.861 321.356 181.691 321.017C169.52 320.678 157.06 322.217 144.309 325.633C142.764 326.047 141.122 326.587 139.383 327.253C137.644 327.719 135.906 328.285 134.167 328.951C121.031 333.671 109.826 340.573 100.553 349.658C91.28 358.742 84.2287 368.432 79.3991 378.726C74.5695 388.82 72.1547 397.967 72.1547 406.167C72.1547 413.967 74.4729 419.946 79.1093 424.103C83.7458 428.261 90.797 429.072 100.263 426.535C108.763 424.258 116.491 419.687 123.445 412.824C130.593 405.908 136.485 398.229 141.122 389.787C145.951 381.093 149.139 372.939 150.684 365.325C151.264 362.37 152.906 360.53 155.611 359.805C157.156 359.391 158.508 359.628 159.668 360.518C160.827 361.207 161.213 362.704 160.827 365.007C159.668 371.318 157.349 378.139 153.872 385.471C150.588 392.751 146.338 399.989 141.122 407.187C136.099 414.133 130.207 420.312 123.445 425.724C116.877 430.883 109.729 434.599 102.002 436.869C88.4788 440.893 78.4332 439.984 71.8649 434.144C65.4898 428.253 62.3022 419.907 62.3022 409.107C62.3022 401.507 63.8477 393.393 66.9387 384.764C70.0296 375.936 74.4729 367.246 80.2684 358.693C86.2572 350.088 93.6948 342.295 102.581 335.314C111.468 328.133 121.707 322.489 133.298 318.384C135.423 317.614 137.548 316.945 139.673 316.375C141.798 315.606 143.826 314.962 145.758 314.445C161.986 310.097 177.151 308.533 191.253 309.754C205.549 310.724 219.362 312.223 232.692 314.251C236.748 307.364 241.385 301.322 246.601 296.124C252.01 290.875 257.419 287.525 262.828 286.076C266.692 285.041 270.169 285.109 273.26 286.281C274.999 287.015 275.868 288.282 275.868 290.082C275.868 291.682 275.385 293.311 274.42 294.97C273.454 296.429 272.198 297.365 270.652 297.779C270.073 297.935 269.493 297.99 268.914 297.945C268.527 297.649 268.044 297.478 267.465 297.434C266.499 296.892 265.05 296.881 263.118 297.398C260.414 298.123 257.323 299.951 253.845 302.883C250.561 305.763 247.084 310.095 243.413 315.878C252.3 316.897 261.09 317.642 269.783 318.112C278.67 318.531 287.749 317.798 297.022 315.914C298.761 315.448 301.369 314.449 304.846 312.917C308.324 311.386 311.608 309.406 314.699 306.977C317.024 305.151 320.485 301.704 323.632 298.863C329.475 293.587 330.392 299.863 329.392 302.863C326.892 308.363 321.943 314.236 316.727 317.834C311.704 321.38 305.909 324.033 299.34 325.793C289.681 328.381 279.153 329.502 267.755 329.156C256.55 328.558 246.408 327.676 237.328 326.509C230.566 339.32 223.998 352.98 217.623 367.489C211.248 381.997 204.583 396.783 197.628 411.846C190.867 426.658 183.429 441.251 175.316 455.625C167.395 469.747 158.605 482.803 148.946 494.791C139.286 506.979 128.372 517.404 116.201 526.065C104.03 534.926 90.2175 541.427 74.7627 545.568Z" fill="white"/>
</g>
<g filter="url(#filter4_d_1_4)">
<path d="M243.017 493.832C241.665 494.194 240.409 494.031 239.25 493.341C238.091 492.852 237.608 491.681 237.801 489.83C238.574 479.623 241.278 467.198 245.915 452.556C250.744 437.862 256.636 422.683 263.591 407.019C261.273 407.44 258.955 407.762 256.636 407.983C255.284 407.945 254.222 407.53 253.449 406.737C252.676 405.944 252.29 405.047 252.29 404.047C252.29 403.047 252.58 402.07 253.159 401.114C253.932 399.907 254.994 399.123 256.347 398.76C257.506 398.45 258.761 398.313 260.114 398.351C261.659 398.137 263.301 397.797 265.04 397.331C266.199 397.02 267.262 396.736 268.228 396.477C274.989 381.265 282.137 366.75 289.671 352.931C297.205 338.912 304.16 327.049 310.535 317.341C314.399 311.505 318.456 305.818 322.706 300.279C326.956 294.741 331.302 289.976 335.746 285.985C340.382 281.743 344.825 279.053 349.076 277.914C354.678 276.413 358.542 276.977 360.667 279.608C362.985 281.987 364.144 285.476 364.144 290.076C364.144 296.676 362.405 303.842 358.928 311.574C356.03 317.95 351.684 325.615 345.888 334.568C340.092 343.321 333.331 352.333 325.604 361.603C318.069 370.622 309.859 378.922 300.972 386.503C292.279 394.032 283.393 399.713 274.313 403.546C270.256 412.633 266.585 421.517 263.301 430.197C260.21 438.825 257.506 446.95 255.188 454.571C256.733 452.157 258.279 449.743 259.824 447.329C264.847 439.583 269.87 432.237 274.892 425.291C279.915 418.145 286.29 410.637 294.018 402.766C301.745 394.896 308.603 388.458 314.592 383.454C320.774 378.197 324.831 375.41 326.763 375.092C330.82 374.605 332.848 376.362 332.848 380.362C332.848 382.962 332.075 386.169 330.53 389.983C329.177 393.545 327.729 396.834 326.183 399.848C324.638 402.862 323.575 404.947 322.996 406.102C320.87 410.071 317.973 415.948 314.302 423.731C310.632 431.515 307.541 438.943 305.029 446.016C304.257 448.423 303.484 450.93 302.711 453.537C302.132 455.892 301.842 457.87 301.842 459.47C301.842 462.07 302.904 463.085 305.029 462.516C306.961 461.998 309.762 460.248 313.433 457.264C318.069 453.422 322.319 448.983 326.183 443.948C330.24 438.661 333.717 434.129 336.615 430.353C336.808 430.101 337.678 428.868 339.223 426.654C340.962 424.388 342.604 422.148 344.149 419.934C345.888 417.668 346.757 416.535 346.757 416.535C347.53 415.328 348.496 414.569 349.655 414.258C350.621 414 351.49 414.367 352.263 415.36C353.229 416.101 353.712 417.271 353.712 418.871C353.712 420.671 353.229 422.301 352.263 423.76C349.365 428.736 345.405 434.397 340.382 440.743C335.359 447.089 330.916 452.38 327.052 456.615C322.996 460.902 318.842 464.515 314.592 467.454C310.342 470.392 306.478 472.328 303.001 473.259C299.33 474.243 296.239 473.971 293.728 472.444C291.41 470.865 290.251 467.676 290.251 462.876C290.251 458.476 291.217 453.317 293.148 447.399C295.853 438.475 299.813 429.314 305.029 419.916C310.438 410.467 314.882 401.576 318.359 393.244C304.257 405.623 291.217 419.617 279.239 435.226C267.262 450.836 257.023 466.679 248.523 482.757C248.329 484.409 248.136 486.06 247.943 487.712C247.943 489.312 247.364 490.667 246.204 491.778C245.239 492.837 244.176 493.522 243.017 493.832ZM348.786 288.491C345.115 289.475 340.769 292.74 335.746 298.285C330.723 303.831 325.507 310.729 320.098 318.978C314.882 326.976 309.666 335.574 304.45 344.771C299.234 353.769 294.501 362.437 290.251 370.776C286.001 378.915 282.62 385.62 280.108 390.893C287.836 386.023 296.143 379.397 305.029 371.016C313.916 362.635 322.319 353.183 330.24 342.661C338.161 332.138 344.729 321.078 349.945 309.481C351.49 305.867 352.553 302.882 353.132 300.527C353.905 297.92 354.292 295.816 354.292 294.216C354.292 291.416 353.615 289.697 352.263 289.06C351.104 288.37 349.945 288.181 348.786 288.491Z" fill="white"/>
</g>
<g filter="url(#filter5_d_1_4)">
<path d="M360.347 458.96C353.778 460.72 349.142 460.063 346.437 456.987C343.733 453.712 342.38 449.174 342.38 443.374C342.38 438.574 343.057 433.193 344.409 427.231C345.954 421.017 347.886 414.799 350.204 408.578C350.398 400.726 352.426 392.483 356.29 383.847C360.347 375.16 365.756 367.411 372.517 360.599C379.472 353.736 387.586 349.062 396.859 346.577C405.938 344.144 412.217 345.162 415.694 349.63C419.365 354.047 421.2 359.955 421.2 367.355C421.2 371.755 420.717 376.384 419.751 381.243C418.785 385.902 417.529 390.438 415.984 394.852C414.438 399.266 412.507 403.884 410.188 408.705C407.87 413.326 405.262 418.025 402.364 422.802C408.16 420.249 413.183 417.003 417.433 413.064C421.876 408.874 426.319 403.583 430.763 397.192C435.206 390.802 440.422 382.804 446.411 373.2C447.57 371.489 448.825 370.453 450.178 370.09C451.723 369.676 452.979 369.84 453.945 370.581C455.104 371.27 455.684 372.415 455.684 374.015C455.684 375.215 455.297 376.418 454.524 377.625C448.922 387.127 443.223 395.854 437.428 403.807C431.825 411.708 425.45 418.416 418.302 423.931C411.154 429.446 402.558 433.55 392.512 436.242C387.876 441.684 382.853 446.43 377.444 450.479C372.034 454.529 366.335 457.356 360.347 458.96ZM377.154 376.757C374.836 379.178 372.034 383.529 368.75 389.809C365.466 396.089 362.472 402.791 359.767 409.916C360.153 416.012 362.568 420.965 367.012 424.775C371.648 428.332 378.699 429.143 388.165 427.206C395.12 418.343 400.722 408.642 404.972 398.103C409.223 387.364 411.348 378.195 411.348 370.595C411.348 365.395 410.188 361.505 407.87 358.926C405.552 356.348 401.881 355.731 396.859 357.077C393.381 358.009 390.001 359.515 386.716 361.595C383.432 363.675 380.438 366.077 377.733 368.802C378.699 369.543 379.182 370.613 379.182 372.013C379.182 373.613 378.506 375.195 377.154 376.757ZM352.523 440.057C352.523 443.257 353.102 445.701 354.261 447.391C355.614 448.829 357.642 449.185 360.347 448.46C365.949 446.959 371.648 443.632 377.444 438.479C371.841 438.58 367.108 437.649 363.244 435.684C359.381 433.519 356.386 430.722 354.261 427.291C353.102 432.401 352.523 436.657 352.523 440.057Z" fill="white"/>
</g>
<g filter="url(#filter6_d_1_4)">
<path d="M432.511 435.248C429.42 436.077 427.102 435.598 425.556 433.812C424.011 432.026 423.238 429.533 423.238 426.333C423.238 421.133 424.591 415.371 427.295 409.046C430 402.521 433.284 395.841 437.148 389.006C441.011 382.171 445.261 375.032 449.898 367.59C450.864 366.131 452.216 363.669 453.955 360.203C455.887 356.685 457.625 353.119 459.171 349.505C460.716 345.891 461.392 343.21 461.199 341.462C461.006 338.113 461.682 335.432 463.228 333.418C464.773 331.204 466.512 329.838 468.444 329.32C470.375 328.803 471.824 329.215 472.79 330.556C473.949 332.045 474.529 334.09 474.529 336.69C474.529 339.49 473.563 343.249 471.631 347.966C469.892 352.432 466.801 358.36 462.358 365.751C458.881 371.483 455.017 377.718 450.767 384.457C446.71 390.944 443.233 397.176 440.335 403.152C437.437 409.129 435.988 413.917 435.988 417.517C435.988 420.117 437.051 421.132 439.176 420.563C440.528 420.2 442.46 419.083 444.972 417.21C448.063 414.781 452.313 410.543 457.722 404.493C463.324 398.392 469.12 391.639 475.108 384.235C481.29 376.578 486.893 369.277 491.916 362.331C497.132 355.333 500.899 349.924 503.217 346.103C504.376 343.992 505.825 342.704 507.564 342.238C508.916 341.876 510.172 342.039 511.331 342.729C512.49 343.418 513.069 344.563 513.069 346.163C513.069 346.963 512.78 347.941 512.2 349.096C511.041 351.606 509.495 355.121 507.564 359.638C505.632 364.156 503.7 368.974 501.768 374.091C500.029 379.157 498.484 383.871 497.132 388.233C495.972 392.344 495.393 395.399 495.393 397.399C495.393 399.599 496.069 400.518 497.421 400.156C498.387 399.897 499.546 399.086 500.899 397.724C502.444 396.11 503.796 394.748 504.956 393.637C509.785 388.343 514.228 382.952 518.285 377.465C522.535 371.727 526.399 366.391 529.876 361.46C530.649 360.252 531.615 359.494 532.774 359.183C533.74 358.924 534.609 359.291 535.382 360.284C536.348 361.025 536.831 362.196 536.831 363.796C536.831 365.596 536.348 367.225 535.382 368.684C532.291 373.712 528.234 379.5 523.212 386.045C518.189 392.391 513.745 397.582 509.882 401.617C507.37 404.09 504.376 406.692 500.899 409.424C497.615 411.904 494.524 413.532 491.626 414.309C489.114 414.982 487.086 414.825 485.54 413.839C484.188 412.602 483.512 410.083 483.512 406.283C483.512 403.083 483.995 399.253 484.961 394.795C486.12 390.284 487.472 385.622 489.018 380.808C482.449 389.368 475.012 398.16 466.705 407.186C458.591 416.16 451.153 423.253 444.392 428.465C439.562 432.159 435.602 434.42 432.511 435.248Z" fill="white"/>
</g>
<g filter="url(#filter7_d_1_4)">
<path d="M540.159 397.509C534.75 398.958 530.693 398.445 527.988 395.97C525.477 393.243 524.221 389.379 524.221 384.379C524.221 378.779 525.767 371.865 528.858 363.637C532.142 355.157 536.392 346.218 541.608 336.82C546.824 327.423 552.523 318.496 558.705 310.039C565.08 301.331 571.455 294.023 577.83 288.115C584.205 282.006 590.097 278.228 595.507 276.778C610.575 272.741 618.109 277.822 618.109 292.022C618.109 294.622 617.53 296.677 616.371 298.188C615.212 299.498 614.052 300.309 612.893 300.62C611.348 301.034 610.382 300.492 609.996 298.996C609.223 292.803 607.291 289.121 604.2 287.949C601.109 286.777 598.211 286.554 595.507 287.278C591.643 288.314 587.103 291.53 581.887 296.928C576.671 302.325 571.359 308.849 565.949 316.498C560.54 324.148 555.421 332.219 550.591 340.713C545.955 348.956 542.188 356.765 539.29 364.142C536.392 371.318 534.943 377.006 534.943 381.206C534.943 383.206 535.233 384.929 535.812 386.373C536.585 387.766 537.744 388.256 539.29 387.842C542.188 387.065 545.955 384.456 550.591 380.013C555.228 375.571 560.25 370.125 565.66 363.676C571.069 357.226 576.381 350.503 581.597 343.505C587.007 336.456 591.74 329.888 595.796 323.801C600.047 317.662 603.234 312.708 605.359 308.938C606.325 307.08 607.581 305.943 609.126 305.529C612.217 304.701 613.763 306.187 613.763 309.987C613.763 310.387 613.666 310.913 613.473 311.564C613.473 311.964 613.376 312.49 613.183 313.142C611.251 321.26 608.353 331.036 604.49 342.471C600.819 353.855 596.666 365.768 592.029 378.21C593.768 377.944 595.603 377.852 597.535 377.935C600.047 377.862 601.302 379.125 601.302 381.725C601.302 383.125 600.626 384.707 599.274 386.469C598.115 388.179 596.569 388.994 594.637 388.911C593.285 388.874 591.933 388.936 590.58 389.098C589.421 389.209 588.455 389.368 587.683 389.575C581.887 404.128 575.898 418.232 569.716 431.889C563.535 445.745 557.739 457.598 552.33 467.448C547.5 475.942 542.091 484.291 536.102 492.496C530.113 500.9 523.738 508.109 516.977 514.12C510.215 520.132 503.357 524.07 496.403 525.933C488.675 528.004 482.687 527.608 478.436 524.747C474.186 521.886 472.061 517.155 472.061 510.555C472.061 504.555 473.607 497.441 476.698 489.213C479.596 481.037 483.652 472.55 488.868 463.752C495.244 453.044 503.164 442.121 512.63 430.985C522.289 419.797 532.915 409.75 544.506 400.844C556.097 392.138 568.171 385.603 580.728 381.238C583.819 373.01 586.717 365.234 589.421 357.909C592.126 350.384 594.444 343.563 596.376 337.445C584.399 354.855 573.387 368.905 563.341 379.597C553.489 390.037 545.761 396.007 540.159 397.509ZM482.783 506.482C482.783 510.083 483.846 512.798 485.971 514.628C488.096 516.459 491.863 516.65 497.272 515.2C503.84 513.44 510.602 508.629 517.556 500.765C524.511 493.102 531.369 483.464 538.131 471.852C545.085 460.189 551.75 447.603 558.125 434.095C564.5 420.586 570.393 407.008 575.802 393.358C565.177 397.805 554.938 403.949 545.085 411.789C535.233 419.829 526.153 428.662 517.846 438.287C509.732 448.061 502.874 457.799 497.272 467.5C495.727 470.114 493.795 473.732 491.476 478.353C489.158 483.174 487.13 488.018 485.391 492.884C483.652 497.95 482.783 502.482 482.783 506.482Z" fill="white"/>
</g>
<g filter="url(#filter8_d_1_4)">
<path d="M613.017 410.832C611.665 411.194 610.409 411.031 609.25 410.341C608.091 409.852 607.608 408.681 607.801 406.83C608.574 396.623 611.278 384.198 615.915 369.556C620.744 354.862 626.636 339.683 633.591 324.019C631.273 324.44 628.955 324.762 626.636 324.983C625.284 324.945 624.222 324.53 623.449 323.737C622.676 322.944 622.29 322.047 622.29 321.047C622.29 320.047 622.58 319.07 623.159 318.114C623.932 316.907 624.994 316.123 626.347 315.76C627.506 315.45 628.761 315.313 630.114 315.351C631.659 315.137 633.301 314.797 635.04 314.331C636.199 314.02 637.262 313.736 638.228 313.477C644.989 298.265 652.137 283.75 659.671 269.931C667.205 255.912 674.16 244.049 680.535 234.341C684.399 228.505 688.456 222.818 692.706 217.279C696.956 211.741 701.302 206.976 705.746 202.985C710.382 198.743 714.825 196.053 719.076 194.914C724.678 193.413 728.542 193.977 730.667 196.608C732.985 198.987 734.144 202.476 734.144 207.076C734.144 213.676 732.405 220.842 728.928 228.574C726.03 234.95 721.684 242.615 715.888 251.568C710.092 260.321 703.331 269.333 695.604 278.603C688.069 287.622 679.859 295.922 670.972 303.503C662.279 311.032 653.393 316.713 644.313 320.546C640.256 329.633 636.585 338.517 633.301 347.197C630.21 355.825 627.506 363.95 625.188 371.571C626.733 369.157 628.278 366.743 629.824 364.329C634.847 356.583 639.87 349.237 644.892 342.291C649.915 335.145 656.29 327.637 664.018 319.766C671.745 311.896 678.603 305.458 684.592 300.454C690.774 295.197 694.831 292.41 696.763 292.092C700.82 291.605 702.848 293.362 702.848 297.362C702.848 299.962 702.075 303.169 700.53 306.983C699.177 310.545 697.729 313.834 696.183 316.848C694.638 319.862 693.575 321.947 692.996 323.102C690.87 327.071 687.973 332.948 684.302 340.731C680.632 348.515 677.541 355.943 675.029 363.016C674.257 365.423 673.484 367.93 672.711 370.537C672.132 372.892 671.842 374.87 671.842 376.47C671.842 379.07 672.904 380.085 675.029 379.516C676.961 378.998 679.762 377.248 683.433 374.264C688.069 370.422 692.319 365.983 696.183 360.948C700.24 355.661 703.717 351.129 706.615 347.353C706.808 347.101 707.678 345.868 709.223 343.654C710.962 341.388 712.604 339.148 714.149 336.934C715.888 334.668 716.757 333.535 716.757 333.535C717.53 332.328 718.496 331.569 719.655 331.258C720.621 331 721.49 331.367 722.263 332.36C723.229 333.101 723.712 334.271 723.712 335.871C723.712 337.671 723.229 339.301 722.263 340.76C719.365 345.736 715.405 351.397 710.382 357.743C705.359 364.089 700.916 369.38 697.052 373.615C692.996 377.902 688.842 381.515 684.592 384.454C680.342 387.392 676.478 389.328 673.001 390.259C669.33 391.243 666.239 390.971 663.728 389.444C661.41 387.865 660.251 384.676 660.251 379.876C660.251 375.476 661.217 370.317 663.148 364.399C665.853 355.475 669.813 346.314 675.029 336.916C680.438 327.467 684.882 318.576 688.359 310.244C674.257 322.623 661.217 336.617 649.239 352.226C637.262 367.836 627.023 383.679 618.523 399.757C618.329 401.409 618.136 403.06 617.943 404.712C617.943 406.312 617.364 407.667 616.204 408.778C615.238 409.837 614.176 410.522 613.017 410.832ZM718.786 205.491C715.115 206.475 710.769 209.74 705.746 215.285C700.723 220.831 695.507 227.729 690.098 235.978C684.882 243.976 679.666 252.574 674.45 261.771C669.234 270.769 664.501 279.437 660.251 287.776C656.001 295.915 652.62 302.62 650.108 307.893C657.836 303.023 666.143 296.397 675.029 288.016C683.916 279.635 692.319 270.183 700.24 259.661C708.161 249.138 714.729 238.078 719.945 226.481C721.49 222.867 722.553 219.882 723.132 217.527C723.905 214.92 724.292 212.816 724.292 211.216C724.292 208.416 723.615 206.697 722.263 206.06C721.104 205.37 719.945 205.181 718.786 205.491Z" fill="white"/>
</g>
<g filter="url(#filter9_d_1_4)">
<path d="M726.46 371.957C715.835 374.804 710.523 370.727 710.523 359.727C710.523 355.127 711.489 349.669 713.42 343.351C716.318 333.775 720.665 323.11 726.46 311.357C732.449 299.552 738.534 288.122 744.716 277.065L734.284 279.861C732.739 280.275 731.483 280.111 730.517 279.37C729.745 278.377 729.358 277.181 729.358 275.781C729.358 274.581 729.745 273.377 730.517 272.17C731.483 270.711 732.739 269.775 734.284 269.361L751.961 264.624C754.086 261.255 756.018 258.037 757.756 254.971C759.495 251.705 761.234 248.539 762.972 245.474C765.677 237.549 768.961 229.769 772.825 222.134C776.882 214.447 781.808 207.827 787.604 202.274C788.569 201.415 789.439 200.882 790.212 200.675C791.757 200.261 793.109 200.698 794.268 201.988C795.428 203.077 796.007 204.522 796.007 206.322C796.007 207.722 795.524 209.351 794.558 211.21C793.979 212.166 792.143 215.157 789.052 220.186C785.961 225.214 782.291 231.397 778.041 238.736C773.791 245.875 769.348 253.365 764.711 261.208L792.53 253.754C794.268 253.288 795.524 253.551 796.297 254.544C797.07 255.337 797.456 256.334 797.456 257.534C797.456 258.934 797.07 260.337 796.297 261.744C795.524 262.951 794.268 263.788 792.53 264.254L757.756 273.571L755.148 278.47C753.41 281.536 750.802 286.435 747.324 293.166C744.04 299.846 740.466 307.204 736.603 315.239C732.932 323.223 729.745 330.877 727.04 338.202C724.529 345.275 723.273 350.911 723.273 355.111C723.273 360.111 725.301 362.068 729.358 360.981C732.642 360.101 737.569 357.181 744.137 352.221C750.898 347.009 757.563 340.623 764.132 333.063C767.995 328.628 771.569 324.07 774.853 319.39C778.137 314.71 781.228 310.382 784.126 306.405C784.899 305.198 785.865 304.44 787.024 304.129C787.99 303.87 788.859 304.237 789.632 305.23C790.598 305.971 791.081 307.142 791.081 308.742C791.081 310.542 790.598 312.171 789.632 313.63C786.734 318.607 782.677 324.394 777.461 330.991C772.438 337.337 767.995 342.528 764.132 346.563C756.79 354.13 748.87 360.452 740.37 365.53C735.154 368.728 730.517 370.87 726.46 371.957Z" fill="white"/>
</g>
<g filter="url(#filter10_d_1_4)">
<path d="M802.744 355.431C795.597 357.346 790.187 356.796 786.517 353.779C782.846 350.963 781.011 347.854 781.011 344.454C781.011 340.054 783.136 337.285 787.386 336.146C788.352 335.887 789.318 335.729 790.284 335.67C791.25 335.611 792.312 335.726 793.472 336.016C797.528 336.929 801.875 337.264 806.512 337.022C811.341 336.527 815.978 335.785 820.421 334.795C822.16 333.929 823.802 330.889 825.347 325.675C826.893 320.461 828.052 315.55 828.824 310.943C829.404 306.588 829.694 302.21 829.694 297.81C829.694 291.41 829.211 285.039 828.245 278.698C827.279 272.357 826.41 265.99 825.637 259.597C820.421 268.195 814.915 276.97 809.12 285.923C803.324 294.676 797.915 302.725 792.892 310.071C787.869 317.417 783.619 323.156 780.142 327.287C771.477 338.579 779.053 313.789 782.75 308.589C786.614 303.153 790.96 296.789 795.79 289.494C800.813 281.949 805.835 274.203 810.858 266.257C815.881 258.111 820.517 250.469 824.768 243.33C824.961 241.278 825.154 239.326 825.347 237.475C825.54 235.423 825.83 233.445 826.216 231.542C827.569 224.979 830.08 219.606 833.751 215.423C837.614 210.988 840.995 208.382 843.893 207.605C847.37 206.674 849.109 208.108 849.109 211.908C849.109 214.708 847.66 219.196 844.762 225.372C843.41 227.935 841.961 230.723 840.416 233.737C838.87 236.551 837.131 239.617 835.2 242.935C835.2 250.535 835.876 258.253 837.228 266.091C838.58 273.729 839.353 279.522 839.546 283.47C839.739 285.418 839.836 287.392 839.836 289.392C840.029 291.341 840.126 293.415 840.126 295.615C840.126 301.215 839.643 306.944 838.677 312.803C837.904 318.61 836.262 324.15 833.751 329.423C838.967 326.025 844.376 321.976 849.978 317.275C855.581 312.374 860.41 307.479 864.467 302.592C868.331 298.157 871.905 293.6 875.189 288.92C878.473 284.24 881.564 279.911 884.462 275.935C885.235 274.728 886.2 273.969 887.36 273.658C888.326 273.4 889.195 273.767 889.968 274.76C890.934 275.501 891.416 276.671 891.416 278.271C891.416 280.071 890.934 281.701 889.968 283.16C887.07 288.136 883.013 293.923 877.797 300.521C872.774 306.867 868.331 312.057 864.467 316.092C859.444 321.238 853.262 326.295 845.921 331.262C838.58 336.229 831.046 340.448 823.319 343.918C819.455 347.353 814.915 350.37 809.699 352.967C808.347 353.53 807.091 353.966 805.932 354.277C804.773 354.787 803.71 355.172 802.744 355.431Z" fill="white"/>
</g>
</g>
<defs>
<filter id="filter0_d_1_4" x="4.63644" y="0" width="271.465" height="273.086" filterUnits="userSpaceOnUse" color-interpolation-filters="sRGB">
<feFlood flood-opacity="0" result="BackgroundImageFix"/>
<feColorMatrix in="SourceAlpha" type="matrix" values="0 0 0 0 0 0 0 0 0 0 0 0 0 0 0 0 0 0 127 0" result="hardAlpha"/>
<feOffset dx="4" dy="4"/>
<feComposite in2="hardAlpha" operator="out"/>
<feColorMatrix type="matrix" values="0 0 0 0 0 0 0 0 0 0 0 0 0 0 0 0 0 0 1 0"/>
<feBlend mode="normal" in2="BackgroundImageFix" result="effect1_dropShadow_1_4"/>
<feBlend mode="normal" in="SourceGraphic" in2="effect1_dropShadow_1_4" result="shape"/>
</filter>
<filter id="filter1_d_1_4" x="272.091" y="57.986" width="96.1493" height="115.696" filterUnits="userSpaceOnUse" color-interpolation-filters="sRGB">
<feFlood flood-opacity="0" result="BackgroundImageFix"/>
<feColorMatrix in="SourceAlpha" type="matrix" values="0 0 0 0 0 0 0 0 0 0 0 0 0 0 0 0 0 0 127 0" result="hardAlpha"/>
<feOffset dx="4" dy="4"/>
<feComposite in2="hardAlpha" operator="out"/>
<feColorMatrix type="matrix" values="0 0 0 0 0 0 0 0 0 0 0 0 0 0 0 0 0 0 1 0"/>
<feBlend mode="normal" in2="BackgroundImageFix" result="effect1_dropShadow_1_4"/>
<feBlend mode="normal" in="SourceGraphic" in2="effect1_dropShadow_1_4" result="shape"/>
</filter>
<filter id="filter2_d_1_4" x="348.352" y="20.0681" width="95.5698" height="133.244" filterUnits="userSpaceOnUse" color-interpolation-filters="sRGB">
<feFlood flood-opacity="0" result="BackgroundImageFix"/>
<feColorMatrix in="SourceAlpha" type="matrix" values="0 0 0 0 0 0 0 0 0 0 0 0 0 0 0 0 0 0 127 0" result="hardAlpha"/>
<feOffset dx="4" dy="4"/>
<feComposite in2="hardAlpha" operator="out"/>
<feColorMatrix type="matrix" values="0 0 0 0 0 0 0 0 0 0 0 0 0 0 0 0 0 0 1 0"/>
<feBlend mode="normal" in2="BackgroundImageFix" result="effect1_dropShadow_1_4"/>
<feBlend mode="normal" in="SourceGraphic" in2="effect1_dropShadow_1_4" result="shape"/>
</filter>
<filter id="filter3_d_1_4" x="0" y="285.347" width="333.741" height="268.444" filterUnits="userSpaceOnUse" color-interpolation-filters="sRGB">
<feFlood flood-opacity="0" result="BackgroundImageFix"/>
<feColorMatrix in="SourceAlpha" type="matrix" values="0 0 0 0 0 0 0 0 0 0 0 0 0 0 0 0 0 0 127 0" result="hardAlpha"/>
<feOffset dx="4" dy="4"/>
<feComposite in2="hardAlpha" operator="out"/>
<feColorMatrix type="matrix" values="0 0 0 0 0 0 0 0 0 0 0 0 0 0 0 0 0 0 1 0"/>
<feBlend mode="normal" in2="BackgroundImageFix" result="effect1_dropShadow_1_4"/>
<feBlend mode="normal" in="SourceGraphic" in2="effect1_dropShadow_1_4" result="shape"/>
</filter>
<filter id="filter4_d_1_4" x="237.759" y="277.096" width="130.384" height="220.924" filterUnits="userSpaceOnUse" color-interpolation-filters="sRGB">
<feFlood flood-opacity="0" result="BackgroundImageFix"/>
<feColorMatrix in="SourceAlpha" type="matrix" values="0 0 0 0 0 0 0 0 0 0 0 0 0 0 0 0 0 0 127 0" result="hardAlpha"/>
<feOffset dx="4" dy="4"/>
<feComposite in2="hardAlpha" operator="out"/>
<feColorMatrix type="matrix" values="0 0 0 0 0 0 0 0 0 0 0 0 0 0 0 0 0 0 1 0"/>
<feBlend mode="normal" in2="BackgroundImageFix" result="effect1_dropShadow_1_4"/>
<feBlend mode="normal" in="SourceGraphic" in2="effect1_dropShadow_1_4" result="shape"/>
</filter>
<filter id="filter5_d_1_4" x="342.38" y="345.29" width="117.303" height="118.631" filterUnits="userSpaceOnUse" color-interpolation-filters="sRGB">
<feFlood flood-opacity="0" result="BackgroundImageFix"/>
<feColorMatrix in="SourceAlpha" type="matrix" values="0 0 0 0 0 0 0 0 0 0 0 0 0 0 0 0 0 0 127 0" result="hardAlpha"/>
<feOffset dx="4" dy="4"/>
<feComposite in2="hardAlpha" operator="out"/>
<feColorMatrix type="matrix" values="0 0 0 0 0 0 0 0 0 0 0 0 0 0 0 0 0 0 1 0"/>
<feBlend mode="normal" in2="BackgroundImageFix" result="effect1_dropShadow_1_4"/>
<feBlend mode="normal" in="SourceGraphic" in2="effect1_dropShadow_1_4" result="shape"/>
</filter>
<filter id="filter6_d_1_4" x="423.238" y="329.104" width="117.593" height="110.538" filterUnits="userSpaceOnUse" color-interpolation-filters="sRGB">
<feFlood flood-opacity="0" result="BackgroundImageFix"/>
<feColorMatrix in="SourceAlpha" type="matrix" values="0 0 0 0 0 0 0 0 0 0 0 0 0 0 0 0 0 0 127 0" result="hardAlpha"/>
<feOffset dx="4" dy="4"/>
<feComposite in2="hardAlpha" operator="out"/>
<feColorMatrix type="matrix" values="0 0 0 0 0 0 0 0 0 0 0 0 0 0 0 0 0 0 1 0"/>
<feBlend mode="normal" in2="BackgroundImageFix" result="effect1_dropShadow_1_4"/>
<feBlend mode="normal" in="SourceGraphic" in2="effect1_dropShadow_1_4" result="shape"/>
</filter>
<filter id="filter7_d_1_4" x="472.061" y="275.438" width="150.048" height="255.8" filterUnits="userSpaceOnUse" color-interpolation-filters="sRGB">
<feFlood flood-opacity="0" result="BackgroundImageFix"/>
<feColorMatrix in="SourceAlpha" type="matrix" values="0 0 0 0 0 0 0 0 0 0 0 0 0 0 0 0 0 0 127 0" result="hardAlpha"/>
<feOffset dx="4" dy="4"/>
<feComposite in2="hardAlpha" operator="out"/>
<feColorMatrix type="matrix" values="0 0 0 0 0 0 0 0 0 0 0 0 0 0 0 0 0 0 1 0"/>
<feBlend mode="normal" in2="BackgroundImageFix" result="effect1_dropShadow_1_4"/>
<feBlend mode="normal" in="SourceGraphic" in2="effect1_dropShadow_1_4" result="shape"/>
</filter>
<filter id="filter8_d_1_4" x="607.759" y="194.096" width="130.384" height="220.924" filterUnits="userSpaceOnUse" color-interpolation-filters="sRGB">
<feFlood flood-opacity="0" result="BackgroundImageFix"/>
<feColorMatrix in="SourceAlpha" type="matrix" values="0 0 0 0 0 0 0 0 0 0 0 0 0 0 0 0 0 0 127 0" result="hardAlpha"/>
<feOffset dx="4" dy="4"/>
<feComposite in2="hardAlpha" operator="out"/>
<feColorMatrix type="matrix" values="0 0 0 0 0 0 0 0 0 0 0 0 0 0 0 0 0 0 1 0"/>
<feBlend mode="normal" in2="BackgroundImageFix" result="effect1_dropShadow_1_4"/>
<feBlend mode="normal" in="SourceGraphic" in2="effect1_dropShadow_1_4" result="shape"/>
</filter>
<filter id="filter9_d_1_4" x="710.523" y="200.524" width="90.9333" height="176.311" filterUnits="userSpaceOnUse" color-interpolation-filters="sRGB">
<feFlood flood-opacity="0" result="BackgroundImageFix"/>
<feColorMatrix in="SourceAlpha" type="matrix" values="0 0 0 0 0 0 0 0 0 0 0 0 0 0 0 0 0 0 127 0" result="hardAlpha"/>
<feOffset dx="4" dy="4"/>
<feComposite in2="hardAlpha" operator="out"/>
<feColorMatrix type="matrix" values="0 0 0 0 0 0 0 0 0 0 0 0 0 0 0 0 0 0 1 0"/>
<feBlend mode="normal" in2="BackgroundImageFix" result="effect1_dropShadow_1_4"/>
<feBlend mode="normal" in="SourceGraphic" in2="effect1_dropShadow_1_4" result="shape"/>
</filter>
<filter id="filter10_d_1_4" x="776.145" y="207.33" width="119.272" height="153.217" filterUnits="userSpaceOnUse" color-interpolation-filters="sRGB">
<feFlood flood-opacity="0" result="BackgroundImageFix"/>
<feColorMatrix in="SourceAlpha" type="matrix" values="0 0 0 0 0 0 0 0 0 0 0 0 0 0 0 0 0 0 127 0" result="hardAlpha"/>
<feOffset dx="4" dy="4"/>
<feComposite in2="hardAlpha" operator="out"/>
<feColorMatrix type="matrix" values="0 0 0 0 0 0 0 0 0 0 0 0 0 0 0 0 0 0 1 0"/>
<feBlend mode="normal" in2="BackgroundImageFix" result="effect1_dropShadow_1_4"/>
<feBlend mode="normal" in="SourceGraphic" in2="effect1_dropShadow_1_4" result="shape"/>
</filter>
<clipPath id="clip0_1_4">
<rect width="896" height="554" fill="white"/>
</clipPath>
</defs>
</svg>
