<svg width="825" height="180" viewBox="0 0 825 180" fill="none" xmlns="http://www.w3.org/2000/svg">
<path d="M741.368 25.2817C741.368 27.1477 742 28.7429 743.264 30.0671C744.589 31.3312 746.244 32.505 748.23 33.5885C750.217 34.6118 752.323 35.6351 754.551 36.6584C756.838 37.6215 758.975 38.7953 760.961 40.1797C762.948 41.504 764.573 43.0991 765.837 44.9651C767.161 46.771 767.823 49.0583 767.823 51.8273C767.823 53.8137 767.312 55.6797 766.288 57.4253C765.325 59.1107 763.911 60.5554 762.045 61.7593C760.239 62.9631 758.042 63.9262 755.454 64.6486C752.865 65.3107 749.946 65.6418 746.695 65.6418C743.625 65.6418 740.796 65.2505 738.208 64.468C735.62 63.6855 733.362 62.6321 731.436 61.3078C729.57 59.9233 728.095 58.2981 727.012 56.4321C725.928 54.5661 725.387 52.5496 725.387 50.3826C725.387 49.2389 725.597 48.2758 726.019 47.4933C726.44 46.6506 726.982 45.9583 727.644 45.4166C728.306 44.8749 729.059 44.4836 729.901 44.2428C730.744 43.9419 731.587 43.7914 732.429 43.7914C734.055 43.7914 735.529 44.2428 736.854 45.1457C738.178 45.9885 738.84 47.2525 738.84 48.938C738.84 49.6603 738.78 50.3224 738.659 50.9243C738.539 51.5263 738.389 52.1282 738.208 52.7302C738.027 53.2719 737.877 53.8438 737.757 54.4457C737.636 55.0476 737.576 55.77 737.576 56.6127C737.576 57.335 737.787 57.9971 738.208 58.5991C738.629 59.201 739.201 59.7127 739.924 60.134C740.646 60.5554 741.458 60.8864 742.361 61.1272C743.264 61.3078 744.197 61.3981 745.16 61.3981C746.184 61.3981 747.207 61.2777 748.23 61.0369C749.254 60.7962 750.157 60.4049 750.939 59.8632C751.722 59.3214 752.354 58.6593 752.835 57.8768C753.317 57.034 753.557 56.0709 753.557 54.9874C753.557 53.2418 752.895 51.737 751.571 50.4729C750.247 49.2088 748.591 48.0651 746.605 47.0418C744.679 45.9584 742.572 44.905 740.285 43.8817C737.997 42.7982 735.86 41.5943 733.874 40.27C731.948 38.9458 730.323 37.4108 728.998 35.6652C727.674 33.9196 727.012 31.7827 727.012 29.2545C727.012 27.2079 727.433 25.3118 728.276 23.5662C729.179 21.8206 730.473 20.3157 732.159 19.0517C733.844 17.7876 735.86 16.8245 738.208 16.1623C740.616 15.44 743.355 15.0789 746.424 15.0789C748.892 15.0789 751.3 15.3497 753.648 15.8915C755.995 16.373 758.072 17.1254 759.878 18.1487C761.684 19.1119 763.128 20.3458 764.212 21.8507C765.355 23.2953 765.927 24.9808 765.927 26.907C765.927 28.3516 765.687 29.5856 765.205 30.6089C764.784 31.6322 764.182 32.4749 763.399 33.137C762.677 33.7992 761.834 34.2807 760.871 34.5817C759.968 34.8827 759.065 35.0332 758.162 35.0332C756.597 35.0332 755.243 34.672 754.099 33.9497C752.956 33.1671 752.384 32.0836 752.384 30.6992C752.384 30.0371 752.444 29.4652 752.564 28.9837C752.745 28.5021 752.925 28.0206 753.106 27.539C753.347 26.9973 753.527 26.4254 753.648 25.8235C753.828 25.2215 753.919 24.4992 753.919 23.6565C753.919 22.0915 753.347 20.9478 752.203 20.2254C751.12 19.5031 749.886 19.142 748.501 19.142C747.658 19.142 746.816 19.2924 745.973 19.5934C745.13 19.8342 744.348 20.2254 743.625 20.7672C742.963 21.2487 742.422 21.8808 742 22.6633C741.579 23.3856 741.368 24.2584 741.368 25.2817Z" fill="white"/>
<path d="M718.807 10.1128C721.395 10.1128 723.592 10.8652 725.398 12.3701C727.204 13.8749 728.107 15.8312 728.107 18.239C728.107 19.503 727.866 20.6166 727.385 21.5797C726.963 22.4826 726.421 23.2652 725.759 23.9273C725.097 24.5292 724.345 24.9807 723.502 25.2817C722.659 25.5826 721.817 25.7331 720.974 25.7331C719.77 25.7331 718.717 25.4021 717.814 24.7399C716.911 24.0778 716.459 23.1147 716.459 21.8506C716.459 21.2487 716.52 20.7671 716.64 20.406C716.76 19.9846 716.881 19.5933 717.001 19.2322C717.182 18.871 717.332 18.5399 717.453 18.239C717.573 17.8778 717.633 17.4565 717.633 16.9749C717.633 15.8914 717.031 15.3497 715.827 15.3497C714.985 15.3497 714.052 15.7409 713.028 16.5234C712.005 17.2458 711.072 18.3895 710.229 19.9545C713.299 21.8807 715.677 24.1681 717.362 26.8166C719.048 29.405 719.89 32.2341 719.89 35.304C719.89 39.036 719.108 42.2263 717.543 44.8748C716.038 47.4631 714.021 49.6 711.493 51.2854C709.025 52.9107 706.196 54.1146 703.006 54.8971C699.816 55.6194 696.595 55.9806 693.345 55.9806C690.155 55.9806 687.325 55.6194 684.858 54.8971C682.45 54.1748 680.433 53.3019 678.808 52.2786C677.725 52.1583 677.002 52.2786 676.641 52.6398C676.28 52.9408 676.099 53.3019 676.099 53.7233C676.099 54.566 676.761 55.2282 678.086 55.7097C679.47 56.1311 681.246 56.4922 683.413 56.7932C685.64 57.034 688.168 57.2747 690.997 57.5155C693.826 57.6961 696.686 58.0272 699.575 58.5087C702.524 58.9301 705.414 59.532 708.243 60.3145C711.072 61.0971 713.57 62.1505 715.737 63.4747C717.964 64.799 719.74 66.4844 721.064 68.531C722.449 70.5776 723.141 73.1058 723.141 76.1154C723.141 79.0048 722.419 81.7135 720.974 84.2416C719.529 86.83 717.483 89.0571 714.834 90.9232C712.186 92.8494 708.965 94.3542 705.173 95.4377C701.441 96.5212 697.258 97.0629 692.623 97.0629C688.289 97.0629 684.376 96.5513 680.885 95.528C677.454 94.5047 674.534 93.1503 672.127 91.4649C669.719 89.7795 667.883 87.8533 666.619 85.6863C665.355 83.5193 664.723 81.262 664.723 78.9145C664.723 77.1086 665.024 75.5436 665.626 74.2193C666.288 72.9553 667.1 71.9019 668.063 71.0592C669.087 70.2766 670.23 69.6747 671.494 69.2533C672.759 68.8922 674.023 68.7116 675.287 68.7116C676.37 68.7116 677.424 68.832 678.447 69.0728C679.53 69.3737 680.463 69.7951 681.246 70.3368C682.089 70.8786 682.751 71.5106 683.232 72.2329C683.714 73.0155 683.955 73.8883 683.955 74.8514C683.955 75.5737 683.834 76.2358 683.593 76.8378C683.353 77.4397 683.082 78.0417 682.781 78.6436C682.48 79.2455 682.209 79.8475 681.968 80.4494C681.727 81.1115 681.607 81.8941 681.607 82.797C681.607 85.5659 682.57 87.763 684.496 89.3882C686.483 91.0736 689.222 91.9164 692.713 91.9164C694.639 91.9164 696.385 91.6455 697.95 91.1037C699.515 90.562 700.839 89.8096 701.923 88.8465C703.006 87.9436 703.849 86.8601 704.451 85.596C705.053 84.3319 705.354 82.9776 705.354 81.5329C705.354 79.2455 704.782 77.3795 703.638 75.9349C702.494 74.5504 700.959 73.4368 699.033 72.5941C697.167 71.7514 695 71.0893 692.532 70.6077C690.124 70.1863 687.657 69.7951 685.128 69.4339C682.66 69.0728 680.193 68.6514 677.725 68.1699C675.317 67.7485 673.15 67.1165 671.224 66.2737C669.358 65.431 667.853 64.3174 666.709 62.933C665.565 61.5485 664.994 59.7427 664.994 57.5155C664.994 55.4087 665.806 53.6631 667.431 52.2786C669.117 50.834 671.224 49.7204 673.752 48.9379C671.585 47.0719 669.869 44.9952 668.605 42.7078C667.341 40.3602 666.709 37.8923 666.709 35.304C666.709 32.535 667.251 29.9467 668.334 27.5389C669.418 25.071 671.073 22.9341 673.3 21.1283C675.588 19.3225 678.417 17.9079 681.788 16.8846C685.219 15.8011 689.252 15.2594 693.887 15.2594C696.174 15.2594 698.401 15.4701 700.568 15.8914C702.735 16.3128 704.541 16.9448 705.986 17.7875C706.768 16.3429 707.761 15.0487 708.965 13.905C709.988 12.9419 711.313 12.0691 712.938 11.2866C714.563 10.5041 716.52 10.1128 718.807 10.1128ZM693.887 51.1049C696.595 51.1049 698.612 49.7505 699.936 47.0418C701.26 44.333 701.923 40.3903 701.923 35.2137C701.923 30.0972 701.26 26.3351 699.936 23.9273C698.612 21.4594 696.595 20.2254 693.887 20.2254C691.178 20.2254 689.011 21.4594 687.386 23.9273C685.76 26.3351 684.948 30.0972 684.948 35.2137C684.948 40.3903 685.76 44.333 687.386 47.0418C689.011 49.7505 691.178 51.1049 693.887 51.1049Z" fill="white"/>
<path d="M629.923 15.5303C631.006 15.5303 631.849 15.9215 632.451 16.7041C633.053 17.4866 632.963 18.9312 632.18 21.038C632.963 20.0147 633.986 19.0817 635.25 18.239C636.333 17.5769 637.718 16.9749 639.403 16.4332C641.149 15.8312 643.286 15.5303 645.814 15.5303C651.111 15.5303 655.174 17.005 658.003 19.9545C660.832 22.904 662.247 27.0273 662.247 32.3244V36.2972C662.247 44.1224 662.427 50.2622 662.789 54.7165C663.21 59.1107 663.421 61.9097 663.421 63.1136C663.421 64.498 662.638 65.1903 661.073 65.1903C659.869 65.1903 658.545 65.1 657.1 64.9194C655.716 64.799 654.271 64.7388 652.766 64.7388C651.262 64.7388 649.817 64.799 648.432 64.9194C647.048 65.1 645.754 65.1903 644.55 65.1903C643.587 65.1903 642.925 64.9796 642.563 64.5582C642.262 64.0767 642.112 63.5951 642.112 63.1136C642.112 62.5116 642.262 61.2476 642.563 59.3214C642.864 57.335 643.196 54.9874 643.557 52.2787C643.978 49.5699 644.339 46.6505 644.64 43.5205C644.941 40.3904 645.092 37.3506 645.092 34.4011V32.6855C645.092 29.3147 644.58 26.8768 643.557 25.372C642.533 23.8069 640.998 23.0244 638.952 23.0244C637.989 23.0244 637.086 23.205 636.243 23.5662C635.4 23.8671 634.678 24.439 634.076 25.2817C633.474 26.0642 632.993 27.1778 632.631 28.6225C632.33 30.0671 632.18 31.8729 632.18 34.0399V36.2972C632.18 40.1496 632.33 43.6107 632.631 46.6806C632.932 49.7505 633.264 52.3991 633.625 54.6262C634.046 56.8534 634.407 58.6893 634.708 60.134C635.009 61.5184 635.16 62.5116 635.16 63.1136C635.16 64.498 634.377 65.1903 632.812 65.1903C631.608 65.1903 630.284 65.1 628.839 64.9194C627.455 64.799 626.01 64.7388 624.505 64.7388C623 64.7388 621.556 64.799 620.171 64.9194C618.787 65.1 617.493 65.1903 616.289 65.1903C615.326 65.1903 614.664 64.9796 614.302 64.5582C614.001 64.0767 613.851 63.5951 613.851 63.1136C613.851 62.5116 613.911 61.2476 614.032 59.3214C614.152 57.335 614.272 54.9874 614.393 52.2787C614.573 49.5699 614.724 46.6505 614.844 43.5205C614.965 40.3904 615.025 37.3506 615.025 34.4011C615.025 31.572 614.934 29.3749 614.754 27.8098C614.633 26.1846 614.483 24.8904 614.302 23.9273C614.122 22.9642 613.941 22.1817 613.761 21.5798C613.64 20.9778 613.58 20.2856 613.58 19.5031C613.58 17.4565 614.814 16.4332 617.282 16.4332C619.69 16.4332 622.007 16.2827 624.234 15.9817C626.462 15.6808 628.358 15.5303 629.923 15.5303Z" fill="white"/>
<path d="M600.059 0C602.587 0 604.513 0.69223 605.838 2.07669C607.222 3.46115 607.914 5.20677 607.914 7.31356C607.914 9.42035 607.222 11.166 605.838 12.5504C604.513 13.9349 602.587 14.6271 600.059 14.6271C597.531 14.6271 595.575 13.9349 594.19 12.5504C592.866 11.166 592.204 9.42035 592.204 7.31356C592.204 5.20677 592.866 3.46115 594.19 2.07669C595.575 0.69223 597.531 0 600.059 0ZM609.359 65.19C608.155 65.19 606.831 65.0997 605.386 64.9192C604.002 64.7988 602.557 64.7386 601.052 64.7386C599.547 64.7386 598.103 64.7988 596.718 64.9192C595.334 65.0997 594.04 65.19 592.836 65.19C591.873 65.19 591.21 64.9794 590.849 64.558C590.548 64.0764 590.398 63.5949 590.398 63.1133C590.398 62.5114 590.488 61.5182 590.669 60.1338C590.909 58.7493 591.15 57.0639 591.391 55.0775C591.692 53.0911 591.933 50.8338 592.113 48.3056C592.354 45.7775 592.474 43.0387 592.474 40.0892C592.474 37.26 592.354 34.7921 592.113 32.6853C591.873 30.5183 591.602 28.6222 591.301 26.997C591 25.3717 590.729 24.0174 590.488 22.9339C590.247 21.7902 590.127 20.8271 590.127 20.0446C590.127 17.998 591.361 16.9747 593.829 16.9747C596.237 16.9747 598.554 16.9145 600.781 16.7941C603.069 16.6135 604.995 16.3727 606.56 16.0718C607.824 15.7708 608.787 15.8611 609.449 16.3427C610.111 16.764 610.442 17.4562 610.442 18.4193C610.442 18.9611 610.382 19.6533 610.262 20.496C610.202 21.3388 610.111 22.4523 609.991 23.8368C609.931 25.1611 609.84 26.8465 609.72 28.8931C609.66 30.8795 609.63 33.3474 609.63 36.2969C609.63 40.1494 609.72 43.6105 609.901 46.6804C610.141 49.7503 610.382 52.3988 610.623 54.626C610.924 56.8532 611.165 58.6891 611.345 60.1338C611.586 61.5182 611.707 62.5114 611.707 63.1133C611.707 64.4978 610.924 65.19 609.359 65.19Z" fill="white"/>
<path d="M558.772 3.70186C558.772 5.98923 558.472 8.54748 557.87 11.3766C557.328 14.2057 557.057 17.4261 557.057 21.0377C557.839 20.0144 558.863 19.0814 560.127 18.2387C561.21 17.5766 562.595 16.9746 564.28 16.4329C566.026 15.8309 568.163 15.53 570.691 15.53C575.988 15.53 580.051 17.0047 582.88 19.9542C585.709 22.9037 587.124 27.027 587.124 32.3241V36.2969C587.124 44.1221 587.304 50.2619 587.666 54.7162C588.087 59.1104 588.298 61.9094 588.298 63.1133C588.298 64.4977 587.515 65.19 585.95 65.19C584.746 65.19 583.422 65.0997 581.977 64.9191C580.593 64.7987 579.148 64.7385 577.643 64.7385C576.138 64.7385 574.694 64.7987 573.309 64.9191C571.925 65.0997 570.631 65.19 569.427 65.19C568.464 65.19 567.802 64.9793 567.44 64.5579C567.139 64.0764 566.989 63.5948 566.989 63.1133C566.989 62.5113 567.139 61.2473 567.44 59.3211C567.741 57.3347 568.072 54.9871 568.434 52.2784C568.855 49.5696 569.216 46.6502 569.517 43.5202C569.818 40.3901 569.969 37.3503 569.969 34.4008V32.6853C569.969 29.3144 569.457 26.8765 568.434 25.3717C567.41 23.8066 565.875 23.0241 563.829 23.0241C562.866 23.0241 561.963 23.2047 561.12 23.5659C560.277 23.8668 559.555 24.4387 558.953 25.2814C558.351 26.0639 557.87 27.1775 557.508 28.6222C557.207 30.0668 557.057 31.8726 557.057 34.0396V36.2969C557.057 40.1493 557.207 43.6105 557.508 46.6803C557.809 49.7502 558.14 52.3988 558.502 54.6259C558.923 56.8531 559.284 58.689 559.585 60.1337C559.886 61.5182 560.037 62.5113 560.037 63.1133C560.037 64.4977 559.254 65.19 557.689 65.19C556.485 65.19 555.161 65.0997 553.716 64.9191C552.332 64.7987 550.887 64.7385 549.382 64.7385C547.877 64.7385 546.433 64.7987 545.048 64.9191C543.664 65.0997 542.37 65.19 541.166 65.19C540.203 65.19 539.541 64.9793 539.179 64.5579C538.878 64.0764 538.728 63.5948 538.728 63.1133C538.728 62.5113 538.788 61.2473 538.908 59.3211C539.029 57.3347 539.149 54.9871 539.27 52.2784C539.45 49.5696 539.601 46.6502 539.721 43.5202C539.841 40.3901 539.902 37.3503 539.902 34.4008C539.902 31.5717 539.811 28.6222 539.631 25.5523C539.51 22.4824 539.36 19.5931 539.179 16.8843C538.999 14.1154 538.818 11.7077 538.638 9.66107C538.517 7.55428 538.457 6.10962 538.457 5.3271C538.457 3.28051 539.691 2.25721 542.159 2.25721C544.567 2.25721 546.884 2.19702 549.111 2.07663C551.399 1.89605 553.325 1.65527 554.89 1.3543C556.154 1.05333 557.117 1.14362 557.779 1.62517C558.441 2.04653 558.772 2.73876 558.772 3.70186Z" fill="white"/>
<path d="M526.353 5.68826C526.233 7.43389 526.142 9.14942 526.082 10.8348C526.082 12.5203 526.052 14.2358 525.992 15.9814H533.215C533.757 15.9814 534.178 16.162 534.479 16.5232C534.78 16.8241 534.931 17.1853 534.931 17.6067C534.931 17.9678 534.78 18.329 534.479 18.6902C534.178 18.9911 533.757 19.1416 533.215 19.1416H525.992C525.871 23.8367 525.841 28.5018 525.902 33.1367C526.022 37.7716 526.172 42.4668 526.353 47.2221C526.473 49.4493 526.624 51.2551 526.804 52.6395C526.985 54.024 527.256 55.1075 527.617 55.89C527.978 56.6725 528.43 57.2143 528.971 57.5153C529.573 57.756 530.326 57.8764 531.229 57.8764C532.252 57.8764 533.095 57.7259 533.757 57.425C534.419 57.0638 535.171 56.8832 536.014 56.8832C537.037 56.8832 537.549 57.4852 537.549 58.689C537.549 59.4114 537.158 60.1638 536.375 60.9463C535.593 61.7288 534.569 62.4512 533.305 63.1133C532.101 63.7152 530.717 64.2269 529.152 64.6482C527.647 65.0094 526.142 65.19 524.637 65.19C514.585 65.19 509.559 59.4716 509.559 48.0347C509.559 43.3396 509.559 38.5542 509.559 33.6785C509.559 28.7425 509.469 23.8969 509.288 19.1416H506.399C505.857 19.1416 505.436 18.9911 505.135 18.6902C504.894 18.329 504.773 17.9678 504.773 17.6067C504.773 17.1853 504.894 16.8241 505.135 16.5232C505.436 16.162 505.857 15.9814 506.399 15.9814C508.927 15.9814 511.214 15.3494 513.261 14.0853C515.368 12.7611 517.173 11.3465 518.678 9.84165C520.243 8.27661 521.537 6.86205 522.561 5.59797C523.584 4.27371 524.336 3.61157 524.818 3.61157C525.902 3.61157 526.413 4.3038 526.353 5.68826Z" fill="white"/>
<path d="M471.035 10.1128C473.624 10.1128 475.821 10.8652 477.627 12.3701C479.432 13.8749 480.335 15.8312 480.335 18.239C480.335 19.503 480.095 20.6166 479.613 21.5797C479.192 22.4826 478.65 23.2652 477.988 23.9273C477.326 24.5292 476.573 24.9807 475.731 25.2817C474.888 25.5826 474.045 25.7331 473.202 25.7331C471.999 25.7331 470.945 25.4021 470.042 24.7399C469.139 24.0778 468.688 23.1147 468.688 21.8506C468.688 21.2487 468.748 20.7671 468.868 20.406C468.989 19.9846 469.109 19.5933 469.23 19.2322C469.41 18.871 469.561 18.5399 469.681 18.239C469.801 17.8778 469.862 17.4565 469.862 16.9749C469.862 15.8914 469.26 15.3497 468.056 15.3497C467.213 15.3497 466.28 15.7409 465.257 16.5234C464.234 17.2458 463.301 18.3895 462.458 19.9545C465.528 21.8807 467.905 24.1681 469.591 26.8166C471.276 29.405 472.119 32.2341 472.119 35.304C472.119 39.036 471.336 42.2263 469.771 44.8748C468.267 47.4631 466.25 49.6 463.722 51.2854C461.254 52.9107 458.425 54.1146 455.235 54.8971C452.044 55.6194 448.824 55.9806 445.573 55.9806C442.383 55.9806 439.554 55.6194 437.086 54.8971C434.678 54.1748 432.662 53.3019 431.037 52.2786C429.953 52.1583 429.231 52.2786 428.87 52.6398C428.508 52.9408 428.328 53.3019 428.328 53.7233C428.328 54.566 428.99 55.2282 430.314 55.7097C431.699 56.1311 433.474 56.4922 435.641 56.7932C437.869 57.034 440.397 57.2747 443.226 57.5155C446.055 57.6961 448.914 58.0272 451.803 58.5087C454.753 58.9301 457.642 59.532 460.471 60.3145C463.301 61.0971 465.799 62.1505 467.966 63.4747C470.193 64.799 471.968 66.4844 473.293 68.531C474.677 70.5776 475.369 73.1058 475.369 76.1154C475.369 79.0048 474.647 81.7135 473.202 84.2416C471.758 86.83 469.711 89.0571 467.063 90.9232C464.414 92.8494 461.194 94.3542 457.401 95.4377C453.669 96.5212 449.486 97.0629 444.851 97.0629C440.517 97.0629 436.604 96.5513 433.113 95.528C429.682 94.5047 426.763 93.1503 424.355 91.4649C421.947 89.7795 420.111 87.8533 418.847 85.6863C417.583 83.5193 416.951 81.262 416.951 78.9145C416.951 77.1086 417.252 75.5436 417.854 74.2193C418.516 72.9553 419.329 71.9019 420.292 71.0592C421.315 70.2766 422.459 69.6747 423.723 69.2533C424.987 68.8922 426.251 68.7116 427.515 68.7116C428.599 68.7116 429.652 68.832 430.675 69.0728C431.759 69.3737 432.692 69.7951 433.474 70.3368C434.317 70.8786 434.979 71.5106 435.461 72.2329C435.942 73.0155 436.183 73.8883 436.183 74.8514C436.183 75.5737 436.063 76.2358 435.822 76.8378C435.581 77.4397 435.31 78.0417 435.009 78.6436C434.708 79.2455 434.438 79.8475 434.197 80.4494C433.956 81.1115 433.836 81.8941 433.836 82.797C433.836 85.5659 434.799 87.763 436.725 89.3882C438.711 91.0736 441.45 91.9164 444.941 91.9164C446.868 91.9164 448.613 91.6455 450.178 91.1037C451.743 90.562 453.068 89.8096 454.151 88.8465C455.235 87.9436 456.077 86.8601 456.679 85.596C457.281 84.3319 457.582 82.9776 457.582 81.5329C457.582 79.2455 457.01 77.3795 455.867 75.9349C454.723 74.5504 453.188 73.4368 451.262 72.5941C449.396 71.7514 447.229 71.0893 444.761 70.6077C442.353 70.1863 439.885 69.7951 437.357 69.4339C434.889 69.0728 432.421 68.6514 429.953 68.1699C427.545 67.7485 425.378 67.1165 423.452 66.2737C421.586 65.431 420.081 64.3174 418.938 62.933C417.794 61.5485 417.222 59.7427 417.222 57.5155C417.222 55.4087 418.035 53.6631 419.66 52.2786C421.345 50.834 423.452 49.7204 425.98 48.9379C423.813 47.0719 422.098 44.9952 420.834 42.7078C419.57 40.3602 418.938 37.8923 418.938 35.304C418.938 32.535 419.479 29.9467 420.563 27.5389C421.646 25.071 423.302 22.9341 425.529 21.1283C427.816 19.3225 430.645 17.9079 434.016 16.8846C437.447 15.8011 441.48 15.2594 446.115 15.2594C448.402 15.2594 450.63 15.4701 452.797 15.8914C454.964 16.3128 456.769 16.9448 458.214 17.7875C458.997 16.3429 459.99 15.0487 461.194 13.905C462.217 12.9419 463.541 12.0691 465.167 11.2866C466.792 10.5041 468.748 10.1128 471.035 10.1128ZM446.115 51.1049C448.824 51.1049 450.84 49.7505 452.165 47.0418C453.489 44.333 454.151 40.3903 454.151 35.2137C454.151 30.0972 453.489 26.3351 452.165 23.9273C450.84 21.4594 448.824 20.2254 446.115 20.2254C443.406 20.2254 441.239 21.4594 439.614 23.9273C437.989 26.3351 437.176 30.0972 437.176 35.2137C437.176 40.3903 437.989 44.333 439.614 47.0418C441.239 49.7505 443.406 51.1049 446.115 51.1049Z" fill="white"/>
<path d="M382.153 15.5303C383.237 15.5303 384.079 15.9215 384.681 16.7041C385.283 17.4866 385.193 18.9312 384.41 21.038C385.193 20.0147 386.216 19.0817 387.48 18.239C388.564 17.5769 389.948 16.9749 391.634 16.4332C393.379 15.8312 395.516 15.5303 398.044 15.5303C403.341 15.5303 407.405 17.005 410.234 19.9545C413.063 22.904 414.477 27.0273 414.477 32.3244V36.2972C414.477 44.1224 414.658 50.2622 415.019 54.7165C415.44 59.1107 415.651 61.9097 415.651 63.1136C415.651 64.498 414.869 65.1903 413.304 65.1903C412.1 65.1903 410.775 65.1 409.331 64.9194C407.946 64.799 406.502 64.7388 404.997 64.7388C403.492 64.7388 402.047 64.799 400.663 64.9194C399.278 65.1 397.984 65.1903 396.78 65.1903C395.817 65.1903 395.155 64.9796 394.794 64.5582C394.493 64.0767 394.342 63.5951 394.342 63.1136C394.342 62.5116 394.493 61.2476 394.794 59.3214C395.095 57.335 395.426 54.9874 395.787 52.2787C396.208 49.5699 396.57 46.6505 396.871 43.5205C397.172 40.3904 397.322 37.3506 397.322 34.4011V32.6855C397.322 29.3147 396.81 26.8768 395.787 25.372C394.764 23.8069 393.229 23.0244 391.182 23.0244C390.219 23.0244 389.316 23.205 388.474 23.5662C387.631 23.8671 386.909 24.439 386.307 25.2817C385.705 26.0642 385.223 27.1778 384.862 28.6225C384.561 30.0671 384.41 31.8729 384.41 34.0399V36.2972C384.41 40.1496 384.561 43.6107 384.862 46.6806C385.163 49.7505 385.494 52.3991 385.855 54.6262C386.276 56.8534 386.638 58.6893 386.939 60.134C387.24 61.5184 387.39 62.5116 387.39 63.1136C387.39 64.498 386.608 65.1903 385.043 65.1903C383.839 65.1903 382.514 65.1 381.07 64.9194C379.685 64.799 378.241 64.7388 376.736 64.7388C375.231 64.7388 373.786 64.799 372.402 64.9194C371.017 65.1 369.723 65.1903 368.519 65.1903C367.556 65.1903 366.894 64.9796 366.533 64.5582C366.232 64.0767 366.081 63.5951 366.081 63.1136C366.081 62.5116 366.142 61.2476 366.262 59.3214C366.382 57.335 366.503 54.9874 366.623 52.2787C366.804 49.5699 366.954 46.6505 367.075 43.5205C367.195 40.3904 367.255 37.3506 367.255 34.4011C367.255 31.572 367.165 29.3749 366.984 27.8098C366.864 26.1846 366.713 24.8904 366.533 23.9273C366.352 22.9642 366.172 22.1817 365.991 21.5798C365.871 20.9778 365.811 20.2856 365.811 19.5031C365.811 17.4565 367.045 16.4332 369.512 16.4332C371.92 16.4332 374.238 16.2827 376.465 15.9817C378.692 15.6808 380.588 15.5303 382.153 15.5303Z" fill="white"/>
<path d="M352.287 0C354.816 0 356.742 0.69223 358.066 2.07669C359.451 3.46115 360.143 5.20677 360.143 7.31356C360.143 9.42035 359.451 11.166 358.066 12.5504C356.742 13.9349 354.816 14.6271 352.287 14.6271C349.759 14.6271 347.803 13.9349 346.419 12.5504C345.094 11.166 344.432 9.42035 344.432 7.31356C344.432 5.20677 345.094 3.46115 346.419 2.07669C347.803 0.69223 349.759 0 352.287 0ZM361.587 65.19C360.384 65.19 359.059 65.0997 357.615 64.9192C356.23 64.7988 354.786 64.7386 353.281 64.7386C351.776 64.7386 350.331 64.7988 348.947 64.9192C347.562 65.0997 346.268 65.19 345.064 65.19C344.101 65.19 343.439 64.9794 343.078 64.558C342.777 64.0764 342.626 63.5949 342.626 63.1133C342.626 62.5114 342.717 61.5182 342.897 60.1338C343.138 58.7493 343.379 57.0639 343.62 55.0775C343.921 53.0911 344.161 50.8338 344.342 48.3056C344.583 45.7775 344.703 43.0387 344.703 40.0892C344.703 37.26 344.583 34.7921 344.342 32.6853C344.101 30.5183 343.83 28.6222 343.529 26.997C343.228 25.3717 342.957 24.0174 342.717 22.9339C342.476 21.7902 342.355 20.8271 342.355 20.0446C342.355 17.998 343.589 16.9747 346.057 16.9747C348.465 16.9747 350.783 16.9145 353.01 16.7941C355.297 16.6135 357.223 16.3727 358.788 16.0718C360.052 15.7708 361.016 15.8611 361.678 16.3427C362.34 16.764 362.671 17.4562 362.671 18.4193C362.671 18.9611 362.611 19.6533 362.49 20.496C362.43 21.3388 362.34 22.4523 362.219 23.8368C362.159 25.1611 362.069 26.8465 361.949 28.8931C361.888 30.8795 361.858 33.3474 361.858 36.2969C361.858 40.1494 361.949 43.6105 362.129 46.6804C362.37 49.7503 362.611 52.3988 362.852 54.626C363.152 56.8532 363.393 58.6891 363.574 60.1338C363.815 61.5182 363.935 62.5114 363.935 63.1133C363.935 64.4978 363.152 65.19 361.587 65.19Z" fill="white"/>
<path d="M307.028 15.5303C308.112 15.5303 308.954 15.9215 309.556 16.7041C310.158 17.4866 310.068 18.9312 309.285 21.038C310.068 20.0147 311.091 19.0817 312.355 18.239C313.439 17.5769 314.823 16.9749 316.509 16.4332C318.254 15.8312 320.391 15.5303 322.919 15.5303C328.216 15.5303 332.28 17.005 335.109 19.9545C337.938 22.904 339.352 27.0273 339.352 32.3244V36.2972C339.352 44.1224 339.533 50.2622 339.894 54.7165C340.315 59.1107 340.526 61.9097 340.526 63.1136C340.526 64.498 339.744 65.1903 338.179 65.1903C336.975 65.1903 335.65 65.1 334.206 64.9194C332.821 64.799 331.377 64.7388 329.872 64.7388C328.367 64.7388 326.922 64.799 325.538 64.9194C324.153 65.1 322.859 65.1903 321.655 65.1903C320.692 65.1903 320.03 64.9796 319.669 64.5582C319.368 64.0767 319.217 63.5951 319.217 63.1136C319.217 62.5116 319.368 61.2476 319.669 59.3214C319.97 57.335 320.301 54.9874 320.662 52.2787C321.083 49.5699 321.445 46.6505 321.746 43.5205C322.047 40.3904 322.197 37.3506 322.197 34.4011V32.6855C322.197 29.3147 321.685 26.8768 320.662 25.372C319.639 23.8069 318.104 23.0244 316.057 23.0244C315.094 23.0244 314.191 23.205 313.349 23.5662C312.506 23.8671 311.784 24.439 311.182 25.2817C310.58 26.0642 310.098 27.1778 309.737 28.6225C309.436 30.0671 309.285 31.8729 309.285 34.0399V36.2972C309.285 40.1496 309.436 43.6107 309.737 46.6806C310.038 49.7505 310.369 52.3991 310.73 54.6262C311.151 56.8534 311.513 58.6893 311.814 60.134C312.115 61.5184 312.265 62.5116 312.265 63.1136C312.265 64.498 311.483 65.1903 309.918 65.1903C308.714 65.1903 307.389 65.1 305.945 64.9194C304.56 64.799 303.116 64.7388 301.611 64.7388C300.106 64.7388 298.661 64.799 297.277 64.9194C295.892 65.1 294.598 65.1903 293.394 65.1903C292.431 65.1903 291.769 64.9796 291.408 64.5582C291.107 64.0767 290.956 63.5951 290.956 63.1136C290.956 62.5116 291.017 61.2476 291.137 59.3214C291.257 57.335 291.378 54.9874 291.498 52.2787C291.679 49.5699 291.829 46.6505 291.95 43.5205C292.07 40.3904 292.13 37.3506 292.13 34.4011C292.13 31.572 292.04 29.3749 291.859 27.8098C291.739 26.1846 291.588 24.8904 291.408 23.9273C291.227 22.9642 291.047 22.1817 290.866 21.5798C290.746 20.9778 290.686 20.2856 290.686 19.5031C290.686 17.4565 291.92 16.4332 294.387 16.4332C296.795 16.4332 299.113 16.2827 301.34 15.9817C303.567 15.6808 305.463 15.5303 307.028 15.5303Z" fill="white"/>
<path d="M264.139 40.27C264.139 43.1593 264.289 45.868 264.59 48.3962C264.891 50.8641 265.222 53.0913 265.584 55.0777C266.005 57.0641 266.366 58.7495 266.667 60.134C266.968 61.5184 267.119 62.5116 267.119 63.1136C267.119 64.498 266.336 65.1903 264.771 65.1903C263.567 65.1903 262.243 65.1 260.798 64.9194C259.414 64.799 257.969 64.7388 256.464 64.7388C254.959 64.7388 253.515 64.799 252.13 64.9194C250.746 65.1 249.452 65.1903 248.248 65.1903C247.285 65.1903 246.623 64.9796 246.261 64.5582C245.96 64.0767 245.81 63.5951 245.81 63.1136C245.81 62.5116 245.87 61.2476 245.991 59.3214C246.111 57.335 246.231 54.9874 246.352 52.2787C246.532 49.5699 246.683 46.6505 246.803 43.5205C246.924 40.3904 246.984 37.3506 246.984 34.4011C246.984 32.3545 246.893 30.5788 246.713 29.0739C246.592 27.5089 246.442 26.1545 246.261 25.0108C246.081 23.8671 245.9 22.8739 245.72 22.0312C245.599 21.1283 245.539 20.2856 245.539 19.5031C245.539 17.4565 246.773 16.4332 249.241 16.4332C251.649 16.4332 253.966 16.2827 256.193 15.9817C258.421 15.6808 260.317 15.5303 261.882 15.5303C262.965 15.5303 263.838 15.771 264.5 16.2526C265.222 16.674 265.403 17.6672 265.042 19.2322C264.982 19.7739 264.891 20.2254 264.771 20.5866C265.253 20.0448 265.855 19.5031 266.577 18.9613C267.359 18.3594 268.292 17.8176 269.376 17.3361C270.459 16.7943 271.723 16.373 273.168 16.072C274.673 15.7109 276.358 15.5303 278.224 15.5303C281.836 15.5303 284.665 16.4031 286.712 18.1487C288.758 19.8341 289.782 22.2118 289.782 25.2817C289.782 27.0273 289.511 28.5623 288.969 29.8865C288.427 31.1506 287.735 32.204 286.892 33.0467C286.05 33.8292 285.117 34.4312 284.093 34.8525C283.07 35.2137 282.077 35.3943 281.114 35.3943C279.789 35.3943 278.646 35.0632 277.683 34.4011C276.78 33.6787 276.328 32.6855 276.328 31.4215C276.328 30.7593 276.388 30.2176 276.509 29.7962C276.629 29.3749 276.75 28.9836 276.87 28.6225L277.412 27.539C277.532 27.1778 277.653 26.7865 277.773 26.3652C277.893 25.9438 277.953 25.4021 277.953 24.7399C277.953 23.7768 277.592 22.9943 276.87 22.3924C276.148 21.7904 275.335 21.4895 274.432 21.4895C271.422 21.4895 268.955 23.0846 267.028 26.2749C265.102 29.4652 264.139 34.1302 264.139 40.27Z" fill="white"/>
<path d="M218.976 57.8767C220.601 57.8767 221.895 57.3651 222.859 56.3418C223.822 55.3185 224.363 53.9942 224.484 52.369C224.604 50.4428 224.664 48.7573 224.664 47.3127C224.664 45.8078 224.664 44.7243 224.664 44.0622C224.664 42.3166 224.363 41.0525 223.761 40.27C223.22 39.4875 222.317 39.0962 221.053 39.0962C219.066 39.0962 217.471 40.1195 216.267 42.1661C215.063 44.2127 214.461 46.9214 214.461 50.2923C214.461 52.5796 214.853 54.4156 215.635 55.8C216.478 57.1845 217.592 57.8767 218.976 57.8767ZM241.549 53.0913C241.729 54.5961 241.94 55.8602 242.181 56.8835C242.422 57.8466 242.662 58.6893 242.903 59.4117C243.144 60.134 243.324 60.7961 243.445 61.3981C243.625 61.9398 243.716 62.5116 243.716 63.1136C243.716 63.5951 243.565 64.0767 243.264 64.5582C243.024 64.9796 242.572 65.1903 241.91 65.1903C240.766 65.1903 239.653 65.1301 238.569 65.0097C237.546 64.8893 236.462 64.8291 235.319 64.8291C234.235 64.8291 233.152 64.8893 232.068 65.0097C230.985 65.1301 229.871 65.1903 228.727 65.1903C227.343 65.1903 226.29 64.7388 225.567 63.8359C224.845 62.933 224.484 61.7893 224.484 60.4049V59.5019C223.761 60.5854 222.798 61.5184 221.594 62.301C220.571 63.0233 219.187 63.6854 217.441 64.2874C215.695 64.8893 213.498 65.1903 210.85 65.1903C208.623 65.1903 206.666 64.8291 204.981 64.1068C203.295 63.3845 201.881 62.4214 200.737 61.2175C199.654 59.9534 198.811 58.5088 198.209 56.8835C197.667 55.1981 197.396 53.4224 197.396 51.5564C197.396 48.8476 197.908 46.4399 198.931 44.3331C200.015 42.1661 201.49 40.3603 203.356 38.9156C205.282 37.471 207.509 36.3875 210.037 35.6651C212.626 34.8826 215.394 34.4914 218.344 34.4914C219.427 34.4914 220.36 34.5215 221.143 34.5817C221.926 34.6419 222.558 34.7321 223.039 34.8525C223.641 34.9729 224.123 35.1234 224.484 35.304C224.484 33.137 224.363 31.1807 224.123 29.4351C223.882 27.6293 223.46 26.0943 222.859 24.8302C222.257 23.5662 221.444 22.6031 220.421 21.9409C219.458 21.2186 218.254 20.8574 216.809 20.8574C215.605 20.8574 214.642 21.1885 213.92 21.8506C213.258 22.4526 212.927 23.4157 212.927 24.7399C212.927 25.3419 212.957 25.8535 213.017 26.2749C213.137 26.6962 213.258 27.1176 213.378 27.539C213.498 27.9001 213.589 28.3215 213.649 28.803C213.769 29.2244 213.829 29.7962 213.829 30.5186C213.829 31.903 213.288 32.9564 212.204 33.6787C211.121 34.4011 209.857 34.7622 208.412 34.7622C207.509 34.7622 206.606 34.6118 205.703 34.3108C204.8 34.0098 203.958 33.5584 203.175 32.9564C202.453 32.2943 201.851 31.4817 201.369 30.5186C200.948 29.5555 200.737 28.4118 200.737 27.0875C200.737 25.6429 201.159 24.2283 202.001 22.8438C202.844 21.4594 204.048 20.2254 205.613 19.1419C207.178 18.0584 209.074 17.1856 211.301 16.5235C213.528 15.8613 216.027 15.5303 218.795 15.5303C222.828 15.5303 226.259 16.0118 229.089 16.9749C231.918 17.938 234.205 19.3827 235.951 21.3089C237.696 23.1749 238.96 25.4924 239.743 28.2613C240.525 30.97 240.857 34.1001 240.736 37.6515C240.676 39.9991 240.706 42.437 240.826 44.9651C240.947 47.4331 241.188 50.1418 241.549 53.0913Z" fill="white"/>
<path d="M177.485 53.001C179.892 53.001 181.909 52.7301 183.534 52.1884C185.219 51.5864 186.634 50.9544 187.778 50.2923C188.982 49.6301 190.035 49.0282 190.938 48.4865C191.841 47.8845 192.714 47.5835 193.556 47.5835C194.82 47.5835 195.452 48.2758 195.452 49.6602C195.452 50.6233 195.061 51.9777 194.279 53.7233C193.556 55.469 192.352 57.2146 190.667 58.9602C188.982 60.6456 186.754 62.1204 183.985 63.3845C181.217 64.5883 177.846 65.1903 173.873 65.1903C169.96 65.1903 166.349 64.5883 163.038 63.3845C159.727 62.1806 156.838 60.5252 154.37 58.4185C151.962 56.2515 150.066 53.6631 148.682 50.6534C147.357 47.6437 146.695 44.3331 146.695 40.7214C146.695 36.869 147.327 33.4079 148.591 30.338C149.855 27.2079 151.631 24.5594 153.919 22.3924C156.266 20.1652 159.035 18.4798 162.225 17.3361C165.476 16.1322 169.057 15.5303 172.97 15.5303C176.281 15.5303 179.32 15.9817 182.089 16.8846C184.858 17.7875 187.236 19.0516 189.222 20.6769C191.209 22.2419 192.744 24.0778 193.827 26.1846C194.971 28.2914 195.543 30.5186 195.543 32.8661C195.543 37.7418 193.827 41.5642 190.396 44.3331C187.025 47.102 182.33 48.4865 176.311 48.4865C174.385 48.4865 172.699 48.2758 171.254 47.8544C169.81 47.4331 168.606 46.9816 167.643 46.5001C166.499 45.8981 165.536 45.236 164.753 44.5137C165.355 46.0787 166.228 47.4933 167.372 48.7573C168.395 49.7806 169.689 50.7437 171.254 51.6466C172.88 52.5495 174.956 53.001 177.485 53.001ZM172.88 20.0448C169.93 20.0448 167.823 21.2186 166.559 23.5662C165.355 25.8535 164.753 29.1341 164.753 33.4079C164.753 36.538 165.205 38.8554 166.108 40.3603C167.071 41.8049 168.696 42.5273 170.984 42.5273C173.692 42.5273 175.859 41.4137 177.485 39.1865C179.11 36.8991 179.922 33.8894 179.922 30.1574C179.922 26.9671 179.32 24.4992 178.117 22.7535C176.913 20.9477 175.167 20.0448 172.88 20.0448Z" fill="white"/>
<path d="M144.597 34.6717C144.597 38.5241 144.687 42.0755 144.867 45.326C145.108 48.5163 145.349 51.3454 145.59 53.8133C145.891 56.2211 146.132 58.2376 146.312 59.8628C146.553 61.4279 146.673 62.5113 146.673 63.1133C146.673 64.4977 145.891 65.19 144.326 65.19C143.122 65.19 141.798 65.0997 140.353 64.9191C138.968 64.7987 137.524 64.7385 136.019 64.7385C134.514 64.7385 133.069 64.7987 131.685 64.9191C130.301 65.0997 129.006 65.19 127.802 65.19C126.839 65.19 126.177 64.9793 125.816 64.5579C125.515 64.0764 125.365 63.5948 125.365 63.1133C125.365 62.5113 125.455 61.5783 125.635 60.3143C125.876 58.99 126.117 57.2143 126.358 54.9871C126.659 52.7599 126.9 49.9609 127.08 46.5901C127.321 43.2192 127.441 39.1561 127.441 34.4008C127.441 30.428 127.321 26.8163 127.08 23.5659C126.839 20.3154 126.569 17.4863 126.268 15.0785C125.967 12.6106 125.696 10.564 125.455 8.93874C125.214 7.3135 125.094 6.10962 125.094 5.3271C125.094 3.28051 126.328 2.25721 128.796 2.25721C131.203 2.25721 133.521 2.19702 135.748 2.07663C138.035 1.89605 139.962 1.65527 141.527 1.3543C142.791 1.05333 143.754 1.14362 144.416 1.62517C145.078 2.04653 145.409 2.73876 145.409 3.70186C145.409 4.84555 145.349 6.16982 145.229 7.67466C145.168 9.11932 145.078 10.9251 144.958 13.0921C144.898 15.2591 144.807 17.9076 144.687 21.0377C144.627 24.1678 144.597 27.96 144.597 32.4144V34.6717Z" fill="white"/>
<path d="M795.403 159.725C799.256 159.725 802.482 159.291 805.083 158.424C807.779 157.461 810.043 156.45 811.872 155.391C813.799 154.331 815.484 153.368 816.929 152.501C818.373 151.538 819.77 151.057 821.118 151.057C823.141 151.057 824.152 152.164 824.152 154.379C824.152 155.92 823.526 158.087 822.274 160.88C821.118 163.673 819.192 166.466 816.495 169.259C813.799 171.956 810.235 174.316 805.805 176.338C801.375 178.264 795.981 179.227 789.625 179.227C783.365 179.227 777.586 178.264 772.289 176.338C766.992 174.412 762.369 171.763 758.42 168.393C754.568 164.925 751.534 160.784 749.319 155.969C747.2 151.153 746.141 145.856 746.141 140.077C746.141 133.913 747.152 128.376 749.174 123.464C751.197 118.456 754.038 114.218 757.698 110.751C761.454 107.187 765.884 104.491 770.989 102.661C776.189 100.735 781.92 99.7715 788.18 99.7715C793.477 99.7715 798.341 100.494 802.771 101.938C807.201 103.383 811.006 105.406 814.184 108.006C817.362 110.51 819.818 113.448 821.552 116.818C823.382 120.189 824.296 123.753 824.296 127.509C824.296 135.31 821.552 141.426 816.062 145.856C810.669 150.286 803.156 152.501 793.525 152.501C790.443 152.501 787.747 152.164 785.435 151.49C783.124 150.816 781.198 150.094 779.657 149.323C777.827 148.36 776.286 147.301 775.034 146.145C775.997 148.649 777.393 150.912 779.223 152.935C780.861 154.572 782.931 156.113 785.435 157.558C788.036 159.002 791.358 159.725 795.403 159.725ZM788.036 106.995C783.316 106.995 779.946 108.873 777.923 112.629C775.997 116.289 775.034 121.538 775.034 128.376C775.034 133.384 775.756 137.092 777.201 139.499C778.742 141.811 781.342 142.967 785.002 142.967C789.336 142.967 792.803 141.185 795.403 137.621C798.004 133.962 799.304 129.146 799.304 123.175C799.304 118.07 798.341 114.122 796.415 111.329C794.488 108.439 791.695 106.995 788.036 106.995Z" fill="white"/>
<path d="M733.971 84.0249C733.778 86.8179 733.634 89.5627 733.537 92.2594C733.537 94.9561 733.489 97.7009 733.393 100.494H744.95C745.817 100.494 746.491 100.783 746.973 101.361C747.454 101.842 747.695 102.42 747.695 103.094C747.695 103.672 747.454 104.25 746.973 104.828C746.491 105.309 745.817 105.55 744.95 105.55H733.393C733.2 113.062 733.152 120.526 733.248 127.942C733.441 135.358 733.682 142.87 733.971 150.479C734.163 154.042 734.404 156.932 734.693 159.147C734.982 161.362 735.415 163.096 735.993 164.348C736.571 165.6 737.293 166.466 738.16 166.948C739.123 167.333 740.327 167.526 741.772 167.526C743.409 167.526 744.757 167.285 745.817 166.804C746.876 166.226 748.08 165.937 749.428 165.937C751.066 165.937 751.884 166.9 751.884 168.826C751.884 169.982 751.258 171.186 750.006 172.438C748.754 173.69 747.117 174.845 745.094 175.905C743.168 176.868 740.953 177.687 738.449 178.361C736.041 178.939 733.634 179.228 731.226 179.228C715.142 179.228 707.1 170.078 707.1 151.779C707.1 144.267 707.1 136.61 707.1 128.809C707.1 120.912 706.956 113.159 706.667 105.55H702.044C701.177 105.55 700.503 105.309 700.021 104.828C699.636 104.25 699.443 103.672 699.443 103.094C699.443 102.42 699.636 101.842 700.021 101.361C700.503 100.783 701.177 100.494 702.044 100.494C706.089 100.494 709.749 99.4827 713.023 97.4601C716.394 95.3413 719.283 93.078 721.691 90.6703C724.195 88.1662 726.266 85.9029 727.903 83.8804C729.54 81.7616 730.744 80.7021 731.515 80.7021C733.248 80.7021 734.067 81.8097 733.971 84.0249Z" fill="white"/>
<path d="M665.689 167.526C668.29 167.526 670.36 166.707 671.901 165.07C673.442 163.433 674.309 161.314 674.502 158.713C674.694 155.631 674.791 152.935 674.791 150.623C674.791 148.216 674.791 146.482 674.791 145.423C674.791 142.63 674.309 140.607 673.346 139.355C672.479 138.103 671.035 137.477 669.012 137.477C665.834 137.477 663.282 139.114 661.355 142.389C659.429 145.663 658.466 149.997 658.466 155.391C658.466 159.05 659.092 161.988 660.344 164.203C661.692 166.418 663.474 167.526 665.689 167.526ZM701.806 159.869C702.095 162.277 702.432 164.299 702.817 165.937C703.202 167.478 703.587 168.826 703.973 169.982C704.358 171.137 704.647 172.197 704.839 173.16C705.128 174.027 705.273 174.942 705.273 175.905C705.273 176.675 705.032 177.446 704.551 178.216C704.165 178.89 703.443 179.227 702.384 179.227C700.554 179.227 698.772 179.131 697.038 178.939C695.401 178.746 693.668 178.65 691.838 178.65C690.104 178.65 688.37 178.746 686.637 178.939C684.903 179.131 683.122 179.227 681.292 179.227C679.077 179.227 677.391 178.505 676.235 177.061C675.08 175.616 674.502 173.786 674.502 171.571V170.126C673.346 171.86 671.805 173.353 669.879 174.605C668.242 175.76 666.026 176.82 663.233 177.783C660.44 178.746 656.925 179.227 652.687 179.227C649.124 179.227 645.994 178.65 643.297 177.494C640.601 176.338 638.337 174.797 636.507 172.871C634.774 170.848 633.425 168.537 632.462 165.937C631.596 163.24 631.162 160.399 631.162 157.413C631.162 153.079 631.981 149.227 633.618 145.856C635.352 142.389 637.711 139.499 640.697 137.188C643.779 134.877 647.342 133.143 651.387 131.987C655.529 130.735 659.959 130.109 664.678 130.109C666.412 130.109 667.905 130.157 669.157 130.254C670.409 130.35 671.42 130.494 672.19 130.687C673.153 130.88 673.924 131.12 674.502 131.409C674.502 127.942 674.309 124.812 673.924 122.019C673.539 119.13 672.864 116.674 671.901 114.651C670.938 112.629 669.638 111.088 668.001 110.029C666.46 108.873 664.534 108.295 662.222 108.295C660.296 108.295 658.755 108.825 657.599 109.884C656.54 110.847 656.01 112.388 656.01 114.507C656.01 115.47 656.058 116.289 656.155 116.963C656.347 117.637 656.54 118.311 656.733 118.985C656.925 119.563 657.07 120.237 657.166 121.008C657.359 121.682 657.455 122.597 657.455 123.753C657.455 125.968 656.588 127.653 654.854 128.809C653.121 129.965 651.098 130.543 648.787 130.543C647.342 130.543 645.898 130.302 644.453 129.82C643.008 129.339 641.66 128.616 640.408 127.653C639.252 126.594 638.289 125.294 637.519 123.753C636.844 122.212 636.507 120.382 636.507 118.263C636.507 115.952 637.181 113.688 638.53 111.473C639.878 109.258 641.804 107.284 644.308 105.55C646.813 103.817 649.846 102.42 653.41 101.361C656.973 100.301 660.97 99.7715 665.4 99.7715C671.853 99.7715 677.343 100.542 681.869 102.083C686.396 103.624 690.056 105.935 692.849 109.017C695.642 112.003 697.664 115.711 698.916 120.141C700.168 124.475 700.698 129.483 700.506 135.166C700.409 138.922 700.457 142.822 700.65 146.867C700.843 150.816 701.228 155.15 701.806 159.869Z" fill="white"/>
<path d="M581.841 80.8464C581.841 84.5062 581.359 88.5994 580.396 93.126C579.529 97.6526 579.096 102.805 579.096 108.584C580.348 106.947 581.985 105.454 584.008 104.105C585.741 103.046 587.956 102.083 590.653 101.216C593.446 100.253 596.865 99.7714 600.91 99.7714C609.385 99.7714 615.886 102.131 620.413 106.85C624.94 111.569 627.203 118.167 627.203 126.642V132.998C627.203 145.519 627.492 155.342 628.07 162.469C628.744 169.5 629.081 173.978 629.081 175.905C629.081 178.12 627.829 179.227 625.325 179.227C623.399 179.227 621.28 179.083 618.968 178.794C616.753 178.601 614.442 178.505 612.034 178.505C609.626 178.505 607.315 178.601 605.1 178.794C602.884 179.083 600.814 179.227 598.888 179.227C597.347 179.227 596.287 178.89 595.709 178.216C595.228 177.446 594.987 176.675 594.987 175.905C594.987 174.942 595.228 172.919 595.709 169.837C596.191 166.659 596.721 162.903 597.298 158.569C597.973 154.235 598.55 149.564 599.032 144.556C599.514 139.548 599.754 134.684 599.754 129.965V127.22C599.754 121.826 598.936 117.926 597.298 115.518C595.661 113.014 593.205 111.762 589.931 111.762C588.39 111.762 586.945 112.051 585.597 112.629C584.248 113.11 583.093 114.025 582.13 115.374C581.167 116.626 580.396 118.407 579.818 120.719C579.337 123.03 579.096 125.92 579.096 129.387V132.998C579.096 139.162 579.337 144.7 579.818 149.612C580.3 154.524 580.829 158.761 581.407 162.325C582.081 165.888 582.659 168.826 583.141 171.137C583.622 173.352 583.863 174.942 583.863 175.905C583.863 178.12 582.611 179.227 580.107 179.227C578.181 179.227 576.062 179.083 573.751 178.794C571.535 178.601 569.224 178.505 566.816 178.505C564.408 178.505 562.097 178.601 559.882 178.794C557.667 179.083 555.596 179.227 553.67 179.227C552.129 179.227 551.069 178.89 550.492 178.216C550.01 177.446 549.769 176.675 549.769 175.905C549.769 174.942 549.866 172.919 550.058 169.837C550.251 166.659 550.444 162.903 550.636 158.569C550.925 154.235 551.166 149.564 551.358 144.556C551.551 139.548 551.647 134.684 551.647 129.965C551.647 125.438 551.503 120.719 551.214 115.807C551.021 110.895 550.781 106.272 550.492 101.938C550.203 97.5081 549.914 93.6557 549.625 90.3811C549.432 87.0103 549.336 84.6988 549.336 83.4468C549.336 80.1722 551.31 78.535 555.259 78.535C559.111 78.535 562.819 78.4387 566.383 78.246C570.043 77.9571 573.125 77.5719 575.629 77.0903C577.651 76.6088 579.192 76.7532 580.252 77.5237C581.311 78.1979 581.841 79.3055 581.841 80.8464Z" fill="white"/>
<path d="M468.614 99.0488C474.874 99.0488 480.557 100.012 485.661 101.938C490.765 103.864 495.148 106.609 498.807 110.173C502.467 113.736 505.26 117.974 507.186 122.886C509.209 127.701 510.22 133.095 510.22 139.066C510.22 144.941 509.209 150.382 507.186 155.39C505.26 160.398 502.467 164.732 498.807 168.392C495.148 172.052 490.765 174.893 485.661 176.916C480.557 178.938 474.874 179.949 468.614 179.949C462.354 179.949 456.672 178.938 451.567 176.916C446.559 174.893 442.225 172.052 438.565 168.392C435.002 164.732 432.257 160.398 430.331 155.39C428.404 150.382 427.441 144.941 427.441 139.066C427.441 133.095 428.404 127.701 430.331 122.886C432.257 117.974 435.002 113.736 438.565 110.173C442.225 106.609 446.559 103.864 451.567 101.938C456.672 100.012 462.354 99.0488 468.614 99.0488ZM468.614 172.726C470.829 172.726 472.755 171.908 474.393 170.27C476.126 168.537 477.571 166.177 478.727 163.191C479.979 160.11 480.894 156.546 481.471 152.501C482.146 148.36 482.483 143.881 482.483 139.066C482.483 134.154 482.146 129.724 481.471 125.775C480.894 121.73 479.979 118.263 478.727 115.373C477.571 112.484 476.126 110.269 474.393 108.728C472.755 107.091 470.829 106.272 468.614 106.272C466.495 106.272 464.569 107.091 462.835 108.728C461.198 110.269 459.802 112.484 458.646 115.373C457.49 118.263 456.575 121.73 455.901 125.775C455.323 129.724 455.034 134.154 455.034 139.066C455.034 143.881 455.323 148.36 455.901 152.501C456.575 156.546 457.49 160.11 458.646 163.191C459.802 166.177 461.198 168.537 462.835 170.27C464.569 171.908 466.495 172.726 468.614 172.726Z" fill="white"/>
<path d="M412.273 84.0249C412.081 86.8179 411.936 89.5627 411.84 92.2594C411.84 94.9561 411.792 97.7009 411.695 100.494H423.253C424.12 100.494 424.794 100.783 425.275 101.361C425.757 101.842 425.998 102.42 425.998 103.094C425.998 103.672 425.757 104.25 425.275 104.828C424.794 105.309 424.12 105.55 423.253 105.55H411.695C411.503 113.062 411.455 120.526 411.551 127.942C411.744 135.358 411.984 142.87 412.273 150.479C412.466 154.042 412.707 156.932 412.996 159.147C413.285 161.362 413.718 163.096 414.296 164.348C414.874 165.6 415.596 166.466 416.463 166.948C417.426 167.333 418.63 167.526 420.074 167.526C421.712 167.526 423.06 167.285 424.119 166.804C425.179 166.226 426.383 165.937 427.731 165.937C429.368 165.937 430.187 166.9 430.187 168.826C430.187 169.982 429.561 171.186 428.309 172.438C427.057 173.69 425.42 174.845 423.397 175.905C421.471 176.868 419.256 177.687 416.752 178.361C414.344 178.939 411.936 179.228 409.528 179.228C393.445 179.228 385.403 170.078 385.403 151.779C385.403 144.267 385.403 136.61 385.403 128.809C385.403 120.912 385.258 113.159 384.969 105.55H380.346C379.48 105.55 378.805 105.309 378.324 104.828C377.939 104.25 377.746 103.672 377.746 103.094C377.746 102.42 377.939 101.842 378.324 101.361C378.805 100.783 379.48 100.494 380.346 100.494C384.391 100.494 388.051 99.4827 391.326 97.4601C394.697 95.3413 397.586 93.078 399.994 90.6703C402.498 88.1662 404.569 85.9029 406.206 83.8804C407.843 81.7616 409.047 80.7021 409.817 80.7021C411.551 80.7021 412.37 81.8097 412.273 84.0249Z" fill="white"/>
<path d="M312.771 159.725C316.623 159.725 319.849 159.291 322.45 158.424C325.146 157.461 327.41 156.45 329.24 155.391C331.166 154.331 332.851 153.368 334.296 152.501C335.741 151.538 337.137 151.057 338.485 151.057C340.508 151.057 341.519 152.164 341.519 154.379C341.519 155.92 340.893 158.087 339.641 160.88C338.485 163.673 336.559 166.466 333.862 169.259C331.166 171.956 327.602 174.316 323.172 176.338C318.742 178.264 313.348 179.227 306.992 179.227C300.732 179.227 294.953 178.264 289.656 176.338C284.359 174.412 279.736 171.763 275.787 168.393C271.935 164.925 268.901 160.784 266.686 155.969C264.567 151.153 263.508 145.856 263.508 140.077C263.508 133.913 264.519 128.376 266.542 123.464C268.564 118.456 271.405 114.218 275.065 110.751C278.821 107.187 283.251 104.491 288.356 102.661C293.557 100.735 299.287 99.7715 305.547 99.7715C310.844 99.7715 315.708 100.494 320.138 101.938C324.569 103.383 328.373 105.406 331.551 108.006C334.729 110.51 337.185 113.448 338.919 116.818C340.749 120.189 341.664 123.753 341.664 127.509C341.664 135.31 338.919 141.426 333.429 145.856C328.036 150.286 320.523 152.501 310.892 152.501C307.811 152.501 305.114 152.164 302.802 151.49C300.491 150.816 298.565 150.094 297.024 149.323C295.194 148.36 293.653 147.301 292.401 146.145C293.364 148.649 294.76 150.912 296.59 152.935C298.228 154.572 300.298 156.113 302.802 157.558C305.403 159.002 308.725 159.725 312.771 159.725ZM305.403 106.995C300.684 106.995 297.313 108.873 295.29 112.629C293.364 116.289 292.401 121.538 292.401 128.376C292.401 133.384 293.123 137.092 294.568 139.499C296.109 141.811 298.709 142.967 302.369 142.967C306.703 142.967 310.17 141.185 312.771 137.621C315.371 133.962 316.671 129.146 316.671 123.175C316.671 118.07 315.708 114.122 313.782 111.329C311.856 108.439 309.063 106.995 305.403 106.995Z" fill="white"/>
<path d="M228.43 117.396C229.393 120.286 230.501 123.416 231.753 126.787C233.101 130.061 234.497 133.384 235.942 136.755C237.001 139.451 238.061 142.004 239.12 144.411C240.276 146.819 241.384 149.275 242.443 151.779C244.851 146.482 247.162 141.185 249.377 135.888C251.592 130.494 253.663 125.053 255.589 119.563C256.649 116.481 257.178 113.977 257.178 112.051C257.275 110.029 257.13 108.391 256.745 107.139C256.36 105.791 255.926 104.731 255.445 103.961C254.963 103.19 254.723 102.516 254.723 101.938C254.723 101.457 254.867 100.975 255.156 100.494C255.541 100.012 256.264 99.7715 257.323 99.7715C258.382 99.7715 259.731 99.9159 261.368 100.205C263.005 100.398 264.45 100.494 265.702 100.494C267.05 100.494 268.302 100.398 269.458 100.205C270.614 99.9159 271.818 99.7715 273.07 99.7715C274.418 99.7715 275.092 100.398 275.092 101.65C275.092 102.227 274.755 102.95 274.081 103.817C273.407 104.587 272.54 105.598 271.481 106.85C270.421 108.102 269.265 109.595 268.013 111.329C266.761 112.966 265.557 114.94 264.402 117.252C259.971 126.69 255.782 136.177 251.833 145.712C247.981 155.246 244.658 165.022 241.865 175.038C241.384 176.675 240.709 177.783 239.843 178.361C238.976 178.939 237.868 179.227 236.52 179.227C235.846 179.227 235.22 179.179 234.642 179.083C234.064 178.987 233.294 178.939 232.33 178.939C231.464 178.939 230.789 178.987 230.308 179.083C229.923 179.179 229.345 179.227 228.574 179.227C226.937 179.227 225.589 178.89 224.529 178.216C223.566 177.446 222.699 176.097 221.929 174.171C220.003 169.837 218.365 165.359 217.017 160.736C215.669 156.113 214.031 151.635 212.105 147.301C210.179 142.87 208.205 138.488 206.182 134.154C204.256 129.724 202.233 125.342 200.115 121.008C198.477 117.637 197.033 114.94 195.781 112.918C194.529 110.895 193.469 109.258 192.602 108.006C191.832 106.754 191.206 105.791 190.724 105.117C190.339 104.346 190.146 103.576 190.146 102.805C190.146 102.035 190.387 101.361 190.869 100.783C191.35 100.109 192.121 99.7715 193.18 99.7715C195.973 99.7715 198.574 99.9159 200.981 100.205C203.485 100.398 206.086 100.494 208.783 100.494C211.479 100.494 214.176 100.398 216.873 100.205C219.569 99.9159 222.17 99.7715 224.674 99.7715C225.926 99.7715 226.889 100.205 227.563 101.072C228.237 101.938 228.574 102.902 228.574 103.961C228.574 104.828 228.43 105.646 228.141 106.417C227.852 107.091 227.611 107.91 227.419 108.873C227.226 109.836 227.178 110.992 227.274 112.34C227.37 113.688 227.756 115.374 228.43 117.396Z" fill="white"/>
<path d="M157.958 99.0488C164.218 99.0488 169.9 100.012 175.005 101.938C180.109 103.864 184.491 106.609 188.151 110.173C191.811 113.736 194.604 117.974 196.53 122.886C198.553 127.701 199.564 133.095 199.564 139.066C199.564 144.941 198.553 150.382 196.53 155.39C194.604 160.398 191.811 164.732 188.151 168.392C184.491 172.052 180.109 174.893 175.005 176.916C169.9 178.938 164.218 179.949 157.958 179.949C151.698 179.949 146.015 178.938 140.911 176.916C135.903 174.893 131.569 172.052 127.909 168.392C124.346 164.732 121.601 160.398 119.674 155.39C117.748 150.382 116.785 144.941 116.785 139.066C116.785 133.095 117.748 127.701 119.674 122.886C121.601 117.974 124.346 113.736 127.909 110.173C131.569 106.609 135.903 103.864 140.911 101.938C146.015 100.012 151.698 99.0488 157.958 99.0488ZM157.958 172.726C160.173 172.726 162.099 171.908 163.736 170.27C165.47 168.537 166.915 166.177 168.07 163.191C169.322 160.11 170.237 156.546 170.815 152.501C171.489 148.36 171.827 143.881 171.827 139.066C171.827 134.154 171.489 129.724 170.815 125.775C170.237 121.73 169.322 118.263 168.07 115.373C166.915 112.484 165.47 110.269 163.736 108.728C162.099 107.091 160.173 106.272 157.958 106.272C155.839 106.272 153.913 107.091 152.179 108.728C150.542 110.269 149.145 112.484 147.99 115.373C146.834 118.263 145.919 121.73 145.245 125.775C144.667 129.724 144.378 134.154 144.378 139.066C144.378 143.881 144.667 148.36 145.245 152.501C145.919 156.546 146.834 160.11 147.99 163.191C149.145 166.177 150.542 168.537 152.179 170.27C153.913 171.908 155.839 172.726 157.958 172.726Z" fill="white"/>
<path d="M113.425 130.398C113.425 136.562 113.57 142.244 113.859 147.445C114.244 152.549 114.629 157.076 115.014 161.025C115.496 164.877 115.881 168.104 116.17 170.704C116.555 173.208 116.748 174.942 116.748 175.905C116.748 178.12 115.496 179.227 112.992 179.227C111.066 179.227 108.947 179.083 106.635 178.794C104.42 178.601 102.109 178.505 99.701 178.505C97.2933 178.505 94.9818 178.601 92.7667 178.794C90.5515 179.083 88.4809 179.227 86.5547 179.227C85.0137 179.227 83.9543 178.89 83.3764 178.216C82.8949 177.446 82.6541 176.675 82.6541 175.905C82.6541 174.942 82.7986 173.449 83.0875 171.426C83.4727 169.307 83.858 166.466 84.2432 162.903C84.7248 159.339 85.11 154.861 85.3989 149.468C85.7842 144.074 85.9768 137.573 85.9768 129.965C85.9768 123.608 85.7842 117.83 85.3989 112.629C85.0137 107.428 84.5803 102.901 84.0988 99.0491C83.6172 95.1003 83.1838 91.8258 82.7986 89.2254C82.4133 86.625 82.2207 84.6988 82.2207 83.4468C82.2207 80.1722 84.1951 78.535 88.1438 78.535C91.9962 78.535 95.7042 78.4387 99.2676 78.246C102.927 77.9571 106.009 77.5719 108.513 77.0903C110.536 76.6088 112.077 76.7532 113.136 77.5237C114.196 78.1979 114.725 79.3055 114.725 80.8464C114.725 82.6763 114.629 84.7951 114.437 87.2029C114.34 89.5143 114.196 92.4037 114.003 95.8708C113.907 99.338 113.762 103.576 113.57 108.584C113.473 113.592 113.425 119.659 113.425 126.786V130.398Z" fill="white"/>
<path d="M39.7711 127.942C39.7711 134.106 39.9156 139.885 40.2045 145.278C40.5898 150.671 40.975 155.439 41.3603 159.58C41.8418 163.722 42.2271 167.141 42.516 169.837C42.9012 172.438 43.0939 174.123 43.0939 174.893C43.0939 176.242 42.7568 177.301 42.0826 178.072C41.5047 178.842 40.3972 179.227 38.7599 179.227C36.2558 179.227 33.9925 179.131 31.97 178.939C29.9475 178.746 27.7805 178.65 25.4691 178.65C23.1576 178.65 21.0869 178.746 19.257 178.939C17.4272 179.131 15.2602 179.227 12.7561 179.227C11.4078 179.227 10.4447 178.842 9.86679 178.072C9.28893 177.301 9 176.242 9 174.893C9 174.123 9.14447 172.438 9.4334 169.837C9.81864 167.141 10.2039 163.722 10.5891 159.58C11.0707 155.439 11.4559 150.671 11.7448 145.278C12.1301 139.885 12.3227 134.106 12.3227 127.942C12.3227 121.778 12.1301 116 11.7448 110.606C11.4559 105.213 11.0707 100.446 10.5891 96.3043C10.2039 92.1629 9.81864 88.7439 9.4334 86.0472C9.14447 83.3505 9 81.6651 9 80.991C9 79.6426 9.28893 78.5832 9.86679 77.8127C10.4447 77.0422 11.4078 76.657 12.7561 76.657C15.2602 76.657 17.4272 76.7533 19.257 76.9459C21.0869 77.1385 23.1576 77.2348 25.4691 77.2348C27.7805 77.2348 29.9475 77.1385 31.97 76.9459C33.9925 76.7533 36.2558 76.657 38.7599 76.657C40.3972 76.657 41.5047 77.0422 42.0826 77.8127C42.7568 78.5832 43.0939 79.6426 43.0939 80.991C43.0939 81.6651 42.9012 83.3505 42.516 86.0472C42.2271 88.7439 41.8418 92.1629 41.3603 96.3043C40.975 100.446 40.5898 105.213 40.2045 110.606C39.9156 116 39.7711 121.778 39.7711 127.942Z" fill="white"/>
<path d="M5.02031 47.0811L24.0785 64.8046C24.8695 65.54 25.9137 65.9497 27 65.9497C28.0863 65.9497 29.1305 65.54 29.9215 64.8046L48.9797 47.0811C52.1859 44.1079 54 39.9371 54 35.5771V34.9678C54 27.6242 48.6738 21.3627 41.407 20.1545C36.5977 19.356 31.7039 20.9214 28.2656 24.3463L27 25.607L25.7344 24.3463C22.2961 20.9214 17.4023 19.356 12.593 20.1545C5.32617 21.3627 0 27.6242 0 34.9678V35.5771C0 39.9371 1.81406 44.1079 5.02031 47.0811Z" fill="white"/>
</svg>
