<svg width="540" height="238" viewBox="0 0 540 238" fill="none" xmlns="http://www.w3.org/2000/svg">
<path fill-rule="evenodd" clip-rule="evenodd" d="M258.479 3.01988H12.0223C7.04248 3.01988 3.00557 7.07602 3.00557 12.0795V197.802C3.00557 202.806 7.04248 206.862 12.0223 206.862H267.495V12.0795C267.495 7.07603 263.458 3.01988 258.479 3.01988ZM12.0223 0C5.38255 0 0 5.40819 0 12.0795V197.802C0 204.474 5.38255 209.882 12.0223 209.882H270.501V12.0795C270.501 5.40819 265.118 0 258.479 0H12.0223Z" fill="white"/>
<path d="M227.088 28.1196C237.218 27.9975 243.971 35.6906 242.153 45.2155L232.283 96.6252C230.465 105.906 220.854 113.477 210.984 113.477H175.528C165.528 113.477 158.775 105.906 160.593 96.5031L170.203 45.3376C171.892 36.057 181.373 28.3638 191.373 28.3638L227.088 28.1196ZM208.386 87.2224L214.88 53.1528C215.529 49.4894 212.802 46.4366 208.906 46.4366H189.814L195.399 52.1759L188.775 87.2224C188.126 91.008 190.853 94.0608 194.749 94.0608H199.944C203.97 94.0608 207.737 91.008 208.386 87.2224Z" fill="white"/>
<path d="M146.125 28.1196C156.132 27.9975 162.803 35.6906 161.007 45.2155L151.257 96.6252C149.46 105.906 139.967 113.477 130.217 113.477H95.1941C85.3158 113.477 78.6447 105.906 80.4408 96.5031L89.9342 45.3376C91.602 36.057 100.967 28.3638 110.845 28.3638L146.125 28.1196ZM127.651 87.2224L134.066 53.1528C134.707 49.4894 132.013 46.4366 128.164 46.4366H109.306L114.822 52.1759L108.28 87.2224C107.638 91.008 110.332 94.0608 114.181 94.0608H119.312C123.289 94.0608 127.01 91.008 127.651 87.2224Z" fill="white"/>
<path d="M81.1503 28.2408L67.9411 96.1843H73.5648L70.2952 113.477H30.0137L33.6757 95.8164L40.0841 95.4485L49.1082 46.5144L44.5307 52.7692L28.0519 52.8918L38.3839 37.8069C42.4382 32.0427 49.3697 28.2408 56.3013 28.1182L81.1503 28.2408Z" fill="white"/>
<path d="M230.319 151.235C236.672 151.235 240.88 156.136 239.807 162.322L238.075 172.445C237.002 178.711 230.979 183.772 224.544 183.772H186.345L186.51 182.969C187.583 176.702 193.688 171.641 200.041 171.722H221.079L221.656 167.946C221.986 165.536 220.336 163.607 217.861 163.607L203.176 163.447C198.061 163.447 194.76 159.35 195.668 154.449L198.556 139.426L192.45 127.536H232.794C239.147 127.536 243.355 132.517 242.282 138.622L242.117 139.667L210.931 139.587L214.396 143.443L212.994 151.235H230.319Z" fill="white"/>
<path d="M180.731 127.536C187.062 127.536 191.255 132.517 190.186 138.622L187.72 152.441C186.569 158.546 180.649 163.527 174.318 163.607L156.806 163.768L154.998 172.766C153.847 178.872 147.845 183.772 141.596 183.772H136.252L144.638 139.587L138.637 127.536H180.731ZM166.344 151.235C168.892 151.235 171.276 149.147 171.77 146.656L172.181 144.085C172.592 141.595 170.865 139.667 168.399 139.667H160.753L156.56 139.587L160.013 143.443L158.615 151.235H166.344Z" fill="white"/>
<path d="M127.633 127.536C133.964 127.536 138.157 132.517 137.088 138.622L134.621 152.441C133.47 158.546 127.551 163.527 121.22 163.607L103.708 163.768L101.899 172.766C100.748 178.872 94.7464 183.772 88.498 183.772H83.1539L91.54 139.587L85.5382 127.536H127.633ZM113.245 151.235C115.794 151.235 118.178 149.147 118.671 146.656L119.082 144.085C119.494 141.595 117.767 139.667 115.301 139.667H107.654L103.461 139.587L106.914 143.443L105.517 151.235H113.245Z" fill="white"/>
<path d="M36.9093 127.537H70.8347C78.6894 127.455 84.5386 133.978 82.8674 141.072L73.0073 184.776L55.6268 184.695L60.4733 163.903L52.2844 163.984L45.8502 184.776L28.0519 184.45L42.9256 139.115L36.9093 127.537ZM55.3761 151.753L63.1472 151.835L64.902 145.638C65.7375 142.784 63.3979 139.93 60.139 139.93H54.3734L58.2171 143.437L55.3761 151.753Z" fill="white"/>
<path fill-rule="evenodd" clip-rule="evenodd" d="M527.978 29.1223H269.499V225.963C269.499 232.611 274.882 238 281.521 238H527.978C534.617 238 540 232.611 540 225.963V41.1593C540 34.5115 534.617 29.1223 527.978 29.1223ZM430.696 81.544C432.508 72.0629 425.776 64.4051 415.678 64.5266L380.076 64.7698C370.108 64.7698 360.657 72.4276 358.974 81.6656L349.394 132.596C347.581 141.956 354.313 149.492 364.282 149.492H399.625C409.464 149.492 419.044 141.956 420.857 132.718L430.696 81.544ZM403.509 89.4449L397.036 123.358C396.389 127.126 392.634 130.165 388.621 130.165H383.442C379.558 130.165 376.84 127.126 377.487 123.358L384.09 88.4725L378.523 82.7595H397.554C401.438 82.7595 404.156 85.7983 403.509 89.4449ZM511.231 81.544C513.043 72.0629 506.311 64.4051 496.213 64.5266L460.611 64.7698C450.643 64.7698 441.192 72.4276 439.509 81.6656L429.929 132.596C428.116 141.956 434.848 149.492 444.817 149.492H480.16C489.999 149.492 499.579 141.956 501.392 132.718L511.231 81.544ZM484.044 89.4449L477.571 123.358C476.923 127.126 473.169 130.165 469.156 130.165H463.977C460.093 130.165 457.375 127.126 458.022 123.358L464.625 88.4725L459.058 82.7595H478.089C481.972 82.7595 484.691 85.7983 484.044 89.4449ZM350.534 64.6485L337.459 131.989H343.025L339.789 149.127H299.915L303.54 131.624L309.883 131.259L318.816 82.7598L314.285 88.959L297.973 89.0805L308.2 74.1296C312.213 68.4166 319.075 64.6485 325.936 64.5269L350.534 64.6485ZM509.455 192.122C510.296 187.06 506.998 183.049 502.02 183.049H488.442L489.541 176.672L486.826 173.516L511.266 173.581L511.395 172.727C512.235 167.73 508.938 163.654 503.96 163.654H472.343L477.127 173.384L474.865 185.679C474.153 189.69 476.74 193.043 480.748 193.043L492.257 193.174C494.197 193.174 495.49 194.752 495.231 196.725L494.778 199.815H478.291C473.313 199.749 468.528 203.891 467.688 209.02L467.558 209.677H497.494C502.537 209.677 507.257 205.535 508.097 200.407L509.455 192.122ZM463.393 163.719C468.372 163.719 471.669 167.73 470.764 172.727L468.63 185.087C467.919 189.427 463.716 192.977 459.449 192.911L463.846 209.546L455.764 209.48C452.143 209.414 449.234 207.113 448.522 203.628L446.195 192.846H444.578L441.798 209.677H428.738L435.009 173.516L430.289 163.719H463.393ZM452.014 183.049C454.018 183.049 455.958 181.34 456.281 179.302L456.604 177.198C456.928 175.159 455.634 173.582 453.63 173.582H447.617L444.32 173.516L447.1 176.672L446.001 183.049H452.014ZM415.763 163.719L410.332 195.936C409.944 197.974 408.004 199.618 406 199.618L399.534 199.355L396.754 196.33H400.116L405.547 163.719H386.28L390.676 173.779L386.15 200.538C385.31 205.601 388.607 209.677 393.586 209.677H411.883C416.862 209.677 421.582 205.601 422.487 200.538L428.888 163.719H415.763ZM376.009 163.654C380.988 163.654 384.35 167.73 383.444 172.793L378.531 200.538C377.625 205.601 372.906 209.677 367.927 209.677H350.276C345.298 209.677 342 205.601 342.841 200.538L347.561 173.516L342.647 163.719L376.009 163.654ZM366.699 195.476L369.867 177.198C370.19 175.159 368.897 173.516 366.893 173.516H357.388L360.168 176.672L356.936 195.476C356.548 197.514 357.906 199.157 359.91 199.157H362.431C364.436 199.157 366.311 197.514 366.699 195.476ZM328.102 163.719L324.74 183.509L315.688 183.378L318.921 163.653L299.589 163.719L304.05 173.779L297.973 209.677H311.033L313.361 196.527L310.71 193.043H323.124L320.214 209.677H333.21L341.163 163.719H328.102Z" fill="white"/>
</svg>
